<svg width="57" height="57" viewBox="0 0 57 57" fill="none" xmlns="http://www.w3.org/2000/svg">
<g id="fluent:data-area-20-regular">
<path id="Vector" d="M8.55001 7.12495C8.55001 6.74702 8.39988 6.38456 8.13264 6.11732C7.8654 5.85008 7.50295 5.69995 7.12501 5.69995C6.74708 5.69995 6.38462 5.85008 6.11739 6.11732C5.85015 6.38456 5.70001 6.74702 5.70001 7.12495V49.875C5.70001 50.2529 5.85015 50.6153 6.11739 50.8826C6.38462 51.1498 6.74708 51.2999 7.12501 51.2999H49.875C50.2529 51.2999 50.6154 51.1498 50.8826 50.8826C51.1499 50.6153 51.3 50.2529 51.3 49.875C51.3 49.497 51.1499 49.1346 50.8826 48.8673C50.6154 48.6001 50.2529 48.45 49.875 48.45H45.6V15.675C45.5996 15.4068 45.5236 15.1442 45.3807 14.9173C45.2377 14.6905 45.0337 14.5085 44.792 14.3925C44.5503 14.2764 44.2807 14.2308 44.0143 14.2611C43.7478 14.2913 43.4953 14.3961 43.2858 14.5635L29.7911 25.3564L20.6568 20.1381C20.4627 20.0271 20.2452 19.9633 20.022 19.9519C19.7987 19.9405 19.5758 19.9818 19.3715 20.0725L8.55001 24.8833V7.12495ZM8.55001 28.0012L19.8702 22.971L29.2182 28.3118C29.4662 28.4532 29.7509 28.5168 30.0355 28.4945C30.3201 28.4721 30.5913 28.3648 30.8142 28.1865L42.75 18.639V48.45H8.55001V28.0012Z" fill="#F8F8F8"/>
</g>
</svg>
