<svg width="65" height="65" viewBox="0 0 65 65" fill="none" xmlns="http://www.w3.org/2000/svg">
<g id="material-symbols:folder-data-outline">
<path id="Vector" d="M40.625 62.2917C39.1354 62.2917 37.8607 61.7618 36.8009 60.7019C35.741 59.6421 35.2102 58.3664 35.2084 56.875C35.2084 55.8368 35.4566 54.9115 35.9531 54.099C36.4497 53.2865 37.1042 52.632 37.9167 52.1355V37.1719C37.1042 36.6754 36.4497 36.0326 35.9531 35.2436C35.4566 34.4546 35.2084 33.54 35.2084 32.5C35.2084 31.0105 35.7392 29.7357 36.8009 28.6759C37.8625 27.616 39.1372 27.0852 40.625 27.0834C42.1146 27.0834 43.3902 27.6142 44.4519 28.6759C45.5136 29.7375 46.0435 31.0123 46.0417 32.5C46.0417 33.5382 45.7934 34.4527 45.2969 35.2436C44.8004 36.0344 44.1459 36.6772 43.3334 37.1719V44.9584L54.1667 41.3698V37.1719C53.3542 36.6754 52.6997 36.0326 52.2031 35.2436C51.7066 34.4546 51.4584 33.54 51.4584 32.5C51.4584 31.0105 51.9892 29.7357 53.0508 28.6759C54.1125 27.616 55.3872 27.0852 56.875 27.0834C58.3646 27.0834 59.6402 27.6142 60.7019 28.6759C61.7636 29.7375 62.2935 31.0123 62.2917 32.5C62.2917 33.5382 62.0434 34.4527 61.5469 35.2436C61.0504 36.0344 60.3959 36.6772 59.5834 37.1719V45.2292L43.3334 50.6459V52.1355C44.1459 52.632 44.8004 53.2865 45.2969 54.099C45.7934 54.9115 46.0417 55.8368 46.0417 56.875C46.0417 58.3646 45.5118 59.6402 44.4519 60.7019C43.392 61.7636 42.1164 62.2935 40.625 62.2917ZM10.8334 54.1667C9.34377 54.1667 8.06905 53.6368 7.00919 52.5769C5.94933 51.5171 5.41849 50.2414 5.41669 48.75V16.25C5.41669 14.7605 5.94752 13.4857 7.00919 12.4259C8.07085 11.366 9.34558 10.8352 10.8334 10.8334H27.0834L32.5 16.25H54.1667C55.6563 16.25 56.9319 16.7809 57.9936 17.8425C59.0552 18.9042 59.5852 20.1789 59.5834 21.6667H30.2656L24.849 16.25H10.8334V48.75H29.7917V54.1667H10.8334Z" fill="#0871BE"/>
</g>
</svg>
