<svg width="57" height="57" viewBox="0 0 57 57" fill="none" xmlns="http://www.w3.org/2000/svg">
<g id="tabler:device-mobile-code">
<path id="Vector" d="M27.3125 49.875H19C17.7402 49.875 16.532 49.3746 15.6412 48.4838C14.7504 47.593 14.25 46.3848 14.25 45.125V11.875C14.25 10.6152 14.7504 9.40704 15.6412 8.51624C16.532 7.62544 17.7402 7.125 19 7.125H38C39.2598 7.125 40.468 7.62544 41.3588 8.51624C42.2496 9.40704 42.75 10.6152 42.75 11.875V30.875M47.5 49.875L52.25 45.125L47.5 40.375M40.375 40.375L35.625 45.125L40.375 49.875M26.125 9.5H30.875M28.5 40.375V40.3988" stroke="#F8F8F8" stroke-width="4.16667" stroke-linecap="round" stroke-linejoin="round"/>
</g>
</svg>
