<svg width="57" height="57" viewBox="0 0 57 57" fill="none" xmlns="http://www.w3.org/2000/svg">
<g id="pepicons-print:cloud-up" clip-path="url(#clip0_1_9264)">
<g id="Group">
<path id="Vector" opacity="0.2" fill-rule="evenodd" clip-rule="evenodd" d="M37.0499 11.4H34.1999C31.6723 11.4004 29.2164 12.2403 27.218 13.7878C25.2196 15.3354 23.7918 17.503 23.159 19.95H22.7999C19.7764 19.95 16.8768 21.1511 14.7389 23.289C12.601 25.4269 11.3999 28.3266 11.3999 31.35C11.3999 34.3735 12.601 37.2731 14.7389 39.411C16.8768 41.549 19.7764 42.75 22.7999 42.75H45.5999C48.403 42.7541 51.1093 41.7253 53.2019 39.8601C55.2944 37.995 56.6264 35.4243 56.9434 32.6392C57.2603 29.854 56.5401 27.0498 54.9202 24.7621C53.3003 22.4744 50.8944 20.8638 48.162 20.2379C47.5815 17.7256 46.1669 15.4841 44.1488 13.8791C42.1308 12.2741 39.6284 11.4002 37.0499 11.4Z" fill="#F8F8F8"/>
<path id="Vector_2" fill-rule="evenodd" clip-rule="evenodd" d="M31.3499 8.55005H28.4999C25.9724 8.55038 23.5165 9.3903 21.5181 10.9379C19.5197 12.4854 18.0919 14.653 17.459 17.1H17.0999C14.0765 17.1 11.1768 18.3011 9.03893 20.439C6.90102 22.5769 5.69995 25.4766 5.69995 28.5C5.69995 31.5235 6.90102 34.4232 9.03893 36.5611C11.1768 38.699 14.0765 39.9001 17.0999 39.9001H39.8999C42.703 39.9041 45.4094 38.8753 47.5019 37.0102C49.5944 35.145 50.9264 32.5743 51.2434 29.7892C51.5604 27.0041 50.8401 24.1998 49.2203 21.9121C47.6004 19.6245 45.1944 18.0138 42.4621 17.3879C41.8816 14.8756 40.4669 12.6341 38.4489 11.0291C36.4308 9.42408 33.9284 8.55021 31.3499 8.55005ZM19.6678 19.95L20.2178 17.8125C20.6928 15.9771 21.7639 14.3514 23.2629 13.1908C24.762 12.0301 26.6041 11.4002 28.4999 11.4H31.3499C35.3542 11.4 38.7998 14.1788 39.6833 18.0263L40.0823 19.7648L41.8208 20.1666C43.8644 20.6419 45.6621 21.8517 46.8717 23.566C48.0814 25.2803 48.6188 27.3794 48.3816 29.4641C48.1444 31.5487 47.1493 33.4735 45.5854 34.8722C44.0215 36.271 41.9981 37.046 39.8999 37.0501H17.0999C14.8323 37.0501 12.6576 36.1493 11.0542 34.5458C9.45075 32.9424 8.54995 30.7677 8.54995 28.5C8.54995 26.2324 9.45075 24.0577 11.0542 22.4543C12.6576 20.8509 14.8323 19.95 17.0999 19.95H19.6678Z" fill="#F8F8F8"/>
<path id="Vector_3" d="M31.35 47.0251C31.35 47.403 31.1999 47.7655 30.9326 48.0327C30.6654 48.3 30.3029 48.4501 29.925 48.4501C29.5471 48.4501 29.1846 48.3 28.9174 48.0327C28.6501 47.7655 28.5 47.403 28.5 47.0251V25.6501C28.5 25.2722 28.6501 24.9097 28.9174 24.6425C29.1846 24.3752 29.5471 24.2251 29.925 24.2251C30.3029 24.2251 30.6654 24.3752 30.9326 24.6425C31.1999 24.9097 31.35 25.2722 31.35 25.6501V47.0251Z" fill="#F8F8F8"/>
<path id="Vector_4" d="M23.6891 32.4615C23.3926 32.6766 23.0246 32.7692 22.6616 32.7202C22.2986 32.6712 21.9685 32.4842 21.7396 32.1982C21.5108 31.9122 21.4009 31.549 21.4328 31.1841C21.4646 30.8192 21.6358 30.4805 21.9107 30.2385L29.0357 24.5385C29.3322 24.3234 29.7001 24.2308 30.0631 24.2798C30.4261 24.3288 30.7563 24.5158 30.9852 24.8018C31.214 25.0878 31.3239 25.451 31.292 25.8159C31.2602 26.1808 31.089 26.5194 30.8141 26.7615L23.6891 32.4615Z" fill="#F8F8F8"/>
<path id="Vector_5" d="M37.9392 30.2386C38.2141 30.4806 38.3853 30.8193 38.4171 31.1842C38.449 31.5491 38.3391 31.9123 38.1102 32.1983C37.8814 32.4843 37.5512 32.6713 37.1882 32.7203C36.8252 32.7693 36.4573 32.6767 36.1608 32.4616L29.0358 26.7616C28.8797 26.6484 28.7483 26.5047 28.6494 26.3392C28.5504 26.1737 28.4861 25.9899 28.4603 25.7988C28.4345 25.6078 28.4478 25.4135 28.4992 25.2277C28.5507 25.0419 28.6393 24.8685 28.7598 24.7179C28.8802 24.5674 29.0299 24.4428 29.1999 24.3518C29.3699 24.2608 29.5565 24.2053 29.7486 24.1885C29.9407 24.1717 30.1341 24.1941 30.3173 24.2543C30.5004 24.3145 30.6695 24.4112 30.8142 24.5386L37.9392 30.2386Z" fill="#F8F8F8"/>
</g>
</g>
<defs>
<clipPath id="clip0_1_9264">
<rect width="57" height="57" fill="white"/>
</clipPath>
</defs>
</svg>
