<svg width="58" height="58" viewBox="0 0 58 58" fill="none" xmlns="http://www.w3.org/2000/svg">
<g id="solar:cloud-line-duotone">
<g id="Group">
<path id="Vector" d="M34.7541 21.8153C36.2343 21.3005 37.7907 21.039 39.3579 21.042C40.895 21.0388 42.4221 21.2904 43.877 21.7863C49.2807 23.635 53.1667 28.7125 53.1667 34.6865C53.1667 42.224 46.9849 48.3334 39.3579 48.3334H15.1912C9.47096 48.3334 4.83337 43.7514 4.83337 38.0988C4.83337 32.4438 9.47096 27.8642 15.1912 27.8642C17.2372 27.8583 19.2392 28.4579 20.9453 29.5873" stroke="#0871BE" stroke-width="3.125" stroke-linecap="round"/>
<path id="Vector_2" opacity="0.5" d="M17.1971 28.0551C16.6294 26.5388 16.3396 24.9327 16.3416 23.3136C16.3416 15.776 22.5234 9.66669 30.1504 9.66669C37.2554 9.66669 43.1061 14.9689 43.8771 21.7863" stroke="#0871BE" stroke-width="3.125" stroke-linecap="round"/>
</g>
</g>
</svg>
