<svg width="57" height="57" viewBox="0 0 57 57" fill="none" xmlns="http://www.w3.org/2000/svg">
<g id="clarity:design-line" clip-path="url(#clip0_1_9255)">
<path id="Vector" d="M14.25 27.5658V42.75H29.4342L26.2675 39.5833H17.4167V30.7325L14.25 27.5658Z" fill="#F8F8F8"/>
<path id="Vector_2" d="M55.2108 51.1258L50.6667 46.5183V50.6666H6.33332V44.0958H9.49999V41.5625H6.33332V31.0333H9.49999V28.5H6.33332V18.3666H9.49999V15.8333H6.33332V6.98247L31.5717 32.0783V27.6133L5.87415 2.04247C5.65269 1.81918 5.36975 1.66689 5.0614 1.60503C4.75305 1.54317 4.43326 1.57454 4.14281 1.69513C3.85235 1.81573 3.6044 2.02009 3.43054 2.28217C3.25669 2.54424 3.16482 2.85215 3.16665 3.16664V52.25C3.16665 52.6699 3.33347 53.0726 3.6304 53.3696C3.92733 53.6665 4.33006 53.8333 4.74999 53.8333H54.0867C54.4011 53.8351 54.709 53.7433 54.9711 53.5694C55.2332 53.3956 55.4376 53.1476 55.5582 52.8571C55.6788 52.5667 55.7101 52.2469 55.6483 51.9386C55.5864 51.6302 55.4341 51.3473 55.2108 51.1258Z" fill="#F8F8F8"/>
<path id="Vector_3" d="M38 47.5H44.3334C45.1732 47.5 45.9787 47.1664 46.5725 46.5725C47.1664 45.9787 47.5 45.1732 47.5 44.3334V13.775L43.8584 7.07754C43.5767 6.58958 43.17 6.18561 42.6801 5.90728C42.1903 5.62896 41.6351 5.48636 41.0717 5.4942C40.4956 5.49877 39.9317 5.66043 39.4406 5.96175C38.9496 6.26307 38.55 6.69264 38.285 7.2042L34.8334 13.8067V44.3334C34.8334 45.1732 35.167 45.9787 35.7609 46.5725C36.3547 47.1664 37.1602 47.5 38 47.5ZM38 14.5667L41.0717 8.59754L44.3334 14.5825V38H38V14.5667ZM38 40.5809H44.3334V44.4442H38V40.5809Z" fill="#F8F8F8"/>
</g>
<defs>
<clipPath id="clip0_1_9255">
<rect width="57" height="57" fill="white"/>
</clipPath>
</defs>
</svg>
