<svg width="57" height="51" viewBox="0 0 57 51" fill="none" xmlns="http://www.w3.org/2000/svg">
<g id="material-symbols-light:mail-outline">
<path id="Vector" d="M10.9606 42.125C9.86812 42.125 8.95613 41.7593 8.22463 41.0278C7.49154 40.2947 7.125 39.3819 7.125 38.2894V12.7106C7.125 11.6181 7.49154 10.7061 8.22463 9.97462C8.95613 9.24154 9.86812 8.875 10.9606 8.875H46.0394C47.1319 8.875 48.0439 9.24154 48.7754 9.97462C49.5085 10.7061 49.875 11.6181 49.875 12.7106V38.2894C49.875 39.3819 49.5093 40.2939 48.7778 41.0254C48.0447 41.7585 47.1319 42.125 46.0394 42.125H10.9606ZM28.5 25.7731L9.5 13.3519V38.2894C9.5 38.7153 9.63696 39.0652 9.91087 39.3391C10.1848 39.613 10.5347 39.75 10.9606 39.75H46.0394C46.4653 39.75 46.8152 39.613 47.0891 39.3391C47.363 39.0652 47.5 38.7153 47.5 38.2894V13.3519L28.5 25.7731ZM28.5 23.125L46.7685 11.25H10.2315L28.5 23.125ZM9.5 13.3519V11.25V38.2894C9.5 38.7153 9.63696 39.0652 9.91087 39.3391C10.1848 39.613 10.5347 39.75 10.9606 39.75H9.5V13.3519Z" fill="#0871BE"/>
</g>
</svg>
