<svg width="69" height="69" viewBox="0 0 69 69" fill="none" xmlns="http://www.w3.org/2000/svg">
<g id="arcticons:emoji-web">
<path id="Vector" d="M34.5575 61.0937C49.2416 61.0937 61.0937 49.1841 61.0937 34.4425C61.0937 19.7584 49.2416 7.90625 34.5575 7.90625M34.5575 61.0937C19.8159 61.0937 7.90625 49.1841 7.90625 34.4425C7.90625 19.7584 19.8159 7.90625 34.5575 7.90625M34.5575 61.0937V7.90625M57.5747 21.2031H11.4425M57.7228 47.4734H11.2944M8.05 34.5H60.95" stroke="#F8F8F8" stroke-width="1.04167" stroke-linecap="round" stroke-linejoin="round"/>
<path id="Vector_2" d="M34.5287 61.0937C41.8715 61.0937 47.7969 49.1841 47.7969 34.4425C47.7969 19.7584 41.8715 7.90625 34.5287 7.90625C27.1573 7.90625 21.2031 19.7584 21.2031 34.4425C21.2031 49.1841 27.1573 61.0937 34.5287 61.0937Z" stroke="#F8F8F8" stroke-width="1.04167" stroke-linecap="round" stroke-linejoin="round"/>
</g>
</svg>
