<svg width="66" height="66" viewBox="0 0 66 66" fill="none" xmlns="http://www.w3.org/2000/svg">
<g id="oui:app-gis" clip-path="url(#clip0_1_9168)">
<path id="Vector" d="M59.8414 49.2731L64.5769 51.6347L33 66.2083L1.09314 51.4821L6.22876 49.3041L11.2881 51.6388L11.2819 51.6429L33 61.6667L55.0481 51.4903L55.042 51.4882L59.8414 49.2731ZM49.5866 33.8415L64.5769 41.3222L33 55.8958L1.09314 41.1696L16.9084 34.4623C17.7169 35.4647 18.6368 36.5661 19.6721 37.7706L11.2819 41.3304L33 51.3542L55.0481 41.1778L46.893 37.1085C47.9098 35.9122 48.807 34.8253 49.5866 33.8415Z" fill="#0871BE"/>
<path id="Vector_2" d="M37.125 18.5625C37.125 17.4685 36.6904 16.4193 35.9168 15.6457C35.1432 14.8721 34.094 14.4375 33 14.4375C31.906 14.4375 30.8568 14.8721 30.0832 15.6457C29.3096 16.4193 28.875 17.4685 28.875 18.5625C28.875 19.6565 29.3096 20.7057 30.0832 21.4793C30.8568 22.2529 31.906 22.6875 33 22.6875C34.094 22.6875 35.1432 22.2529 35.9168 21.4793C36.6904 20.7057 37.125 19.6565 37.125 18.5625ZM41.25 18.5625C41.25 20.7505 40.3808 22.849 38.8336 24.3961C37.2865 25.9433 35.188 26.8125 33 26.8125C30.812 26.8125 28.7136 25.9433 27.1664 24.3961C25.6192 22.849 24.75 20.7505 24.75 18.5625C24.75 16.3745 25.6192 14.276 27.1664 12.7289C28.7136 11.1817 30.812 10.3125 33 10.3125C35.188 10.3125 37.2865 11.1817 38.8336 12.7289C40.3808 14.276 41.25 16.3745 41.25 18.5625ZM34.5098 44.7171L33 46.3403L31.4903 44.7171C24.154 36.8301 19.4927 31.3892 17.4446 28.2996C15.4792 25.3371 14.4331 21.8598 14.4375 18.3047C14.4375 8.18812 22.7556 0 33 0C43.2445 0 51.5625 8.18812 51.5625 18.3047C51.5664 21.8601 50.5195 25.3373 48.5533 28.2996C46.5073 31.3892 41.8461 36.8301 34.5098 44.7171ZM45.1151 26.0226C46.6336 23.7353 47.4417 21.0501 47.4375 18.3047C47.4375 10.4796 40.9819 4.125 33 4.125C25.0181 4.125 18.5625 10.4796 18.5625 18.3047C18.5625 21.087 19.3751 23.7414 20.8849 26.0226C22.6298 28.6564 26.6846 33.4331 33 40.2786C39.3154 33.4311 43.3703 28.6564 45.1151 26.0226Z" fill="#0871BE"/>
</g>
<defs>
<clipPath id="clip0_1_9168">
<rect width="66" height="66" fill="white"/>
</clipPath>
</defs>
</svg>
