<svg width="69" height="69" viewBox="0 0 69 69" fill="none" xmlns="http://www.w3.org/2000/svg">
<g id="nimbus:marketing" clip-path="url(#clip0_1_9162)">
<path id="Vector" d="M61.4531 9.05622C60.7117 8.57659 59.8639 8.28643 58.9841 8.21123C58.1043 8.13604 57.2195 8.27811 56.4075 8.62497L29.7994 19.1043C29.1694 19.3607 28.4957 19.4925 27.8156 19.4925H10.7812C9.35157 19.4925 7.98044 20.0604 6.9695 21.0714C5.95856 22.0823 5.39062 23.4534 5.39062 24.8831V25.3143H0V38.2518H5.39062V38.8125C5.42441 40.2196 6.00722 41.5577 7.01452 42.5409C8.02182 43.524 9.3737 44.0741 10.7812 44.0737L17.25 57.7875C17.688 58.711 18.3776 59.4922 19.2396 60.0414C20.1016 60.5907 21.101 60.8856 22.1231 60.8925H24.84C26.2622 60.8811 27.6223 60.3081 28.6239 59.2984C29.6255 58.2887 30.1875 56.9241 30.1875 55.5019V44.5912L56.4075 55.0706C57.0524 55.3272 57.7403 55.459 58.4344 55.4587C59.5112 55.4414 60.5599 55.1118 61.4531 54.51C62.1624 54.0311 62.7475 53.3901 63.16 52.6402C63.5724 51.8903 63.8004 51.053 63.825 50.1975V13.4981C63.8211 12.6206 63.6029 11.7573 63.1896 10.9832C62.7762 10.2091 62.1802 9.54763 61.4531 9.05622ZM24.7969 24.8831V38.8125H10.7812V24.8831H24.7969ZM24.7969 55.5019H22.08L16.7756 44.0737H24.7969V55.5019ZM31.7831 39.4593C31.2711 39.1977 30.7372 38.9812 30.1875 38.8125V24.5812C30.7319 24.4689 31.2658 24.3102 31.7831 24.1068L58.4344 13.4981V50.0681L31.7831 39.4593ZM63.9544 26.3925V37.1737C65.3841 37.1737 66.7552 36.6058 67.7661 35.5948C68.7771 34.5839 69.345 33.2128 69.345 31.7831C69.345 30.3534 68.7771 28.9823 67.7661 27.9713C66.7552 26.9604 65.3841 26.3925 63.9544 26.3925Z" fill="#0871BE"/>
</g>
<defs>
<clipPath id="clip0_1_9162">
<rect width="69" height="69" fill="white"/>
</clipPath>
</defs>
</svg>
