<svg width="58" height="58" viewBox="0 0 58 58" fill="none" xmlns="http://www.w3.org/2000/svg">
<g id="emojione-monotone:loudspeaker">
<path id="Vector" d="M48.9502 29.0036C48.9185 34.0623 48.7028 39.1736 49.0988 44.2268C51.1234 39.3186 51.6599 34.1185 51.7224 29.0172C51.63 23.9042 51.1225 18.7122 49.0988 13.7904C48.7354 18.8446 48.9185 23.9458 48.9502 29.0036ZM56.1875 29.0181C56.0688 21.3612 55.3982 13.6545 52.9449 6.18334C52.9857 13.9345 53.4443 21.6793 53.4108 29.4323C53.379 36.9016 52.9631 44.3691 52.9449 51.8348C55.4072 44.3727 56.0688 36.6696 56.1875 29.0181ZM45.501 24.6002L45.3759 24.573C44.9065 12.6694 42.5738 3.625 39.769 3.625C39.2288 3.625 38.7078 3.96666 38.212 4.59197C37.1354 5.79003 23.3133 20.928 11.4749 22.3916C10.0893 22.5629 8.76525 22.7052 7.53638 22.8076C6.10631 22.9281 4.80494 22.9952 3.683 22.9952C3.683 22.9952 1.8125 25.9061 1.8125 29.0199C1.8125 32.1383 3.68662 35.0447 3.68662 35.0447C4.80856 35.0447 6.11175 35.1117 7.54181 35.2305C8.06291 35.2749 8.60847 35.3293 9.16128 35.3863V47.5319H16.4856L23.6794 40.8112C31.7124 46.1091 38.2583 53.4914 38.2583 53.4914V53.4669C38.7395 54.0542 39.2461 54.375 39.769 54.375C42.5738 54.375 44.9065 45.3306 45.3768 33.427L45.5019 33.4007C46.2659 33.4007 46.8867 31.4287 46.8867 29.0009C46.8857 26.5703 46.265 24.6002 45.501 24.6002ZM39.769 5.52631C41.064 6.66547 43.0732 13.2883 43.5489 24.1715L36.0796 22.5321C36.6741 12.6304 38.5401 6.60566 39.769 5.52631ZM12.8234 31.3254C11.9969 31.3254 11.3245 30.5252 11.3245 29.5419C11.3245 28.5559 11.9969 27.7566 12.8234 27.7566C13.6517 27.7566 14.3206 28.5559 14.3206 29.5419C14.3215 30.5261 13.6517 31.3254 12.8234 31.3254ZM16.4856 40.687V36.9786C17.3819 37.3293 18.2791 37.7326 19.169 38.1803L16.4856 40.687ZM16.4856 35.0483V25.5934H12.2588C12.4129 25.0343 12.5869 24.505 12.7673 24.0265C21.7119 22.3853 31.214 14.1647 36.1784 9.30537C34.8943 13.9572 34.0732 21.0495 34.0732 29C34.0732 36.9732 34.8988 44.0836 36.1911 48.7354C31.9236 44.5585 24.2621 37.8658 16.4856 35.0483ZM39.769 52.4737C38.541 51.3943 36.6741 45.3687 36.0796 35.467L43.5489 33.8276C43.0732 44.7108 41.064 51.3345 39.769 52.4737Z" fill="#F8F8F8"/>
</g>
</svg>
