<svg width="66" height="66" viewBox="0 0 66 66" fill="none" xmlns="http://www.w3.org/2000/svg">
<g id="tabler:device-mobile-cog">
<path id="Vector" d="M33 57.75H22C20.5413 57.75 19.1424 57.1705 18.1109 56.1391C17.0795 55.1076 16.5 53.7087 16.5 52.25V13.75C16.5 12.2913 17.0795 10.8924 18.1109 9.86091C19.1424 8.82946 20.5413 8.25 22 8.25H44C45.4587 8.25 46.8576 8.82946 47.8891 9.86091C48.9205 10.8924 49.5 12.2913 49.5 13.75V31.625M30.25 11H35.75M33 46.75V46.7775M52.2527 57.75C50.7941 57.75 49.3951 57.1705 48.3637 56.1391C47.3322 55.1076 46.7527 53.7087 46.7527 52.25C46.7527 50.7913 47.3322 49.3924 48.3637 48.3609C49.3951 47.3295 50.7941 46.75 52.2527 46.75M52.2527 57.75C53.7114 57.75 55.1104 57.1705 56.1418 56.1391C57.1733 55.1076 57.7527 53.7087 57.7527 52.25C57.7527 50.7913 57.1733 49.3924 56.1418 48.3609C55.1104 47.3295 53.7114 46.75 52.2527 46.75M52.2527 57.75V61.875M52.2527 46.75V42.625M60.588 47.4375L57.0157 49.5M47.4925 55L43.9175 57.0625M43.9175 47.4375L47.4925 49.5M57.0157 55L60.5908 57.0625" stroke="#0871BE" stroke-width="4.16667" stroke-linecap="round" stroke-linejoin="round"/>
</g>
</svg>
