<svg width="217" height="97" viewBox="0 0 217 97" fill="none" xmlns="http://www.w3.org/2000/svg">
<g id="Vector">
<path d="M126.393 34.7058V41.7108H124.91V34.7058H126.393Z" fill="#07547D"/>
<path d="M131.806 36.7204C131.778 36.4445 131.66 36.2302 131.453 36.0774C131.245 35.9246 130.963 35.8482 130.606 35.8482C130.364 35.8482 130.16 35.8824 129.993 35.9508C129.827 36.017 129.699 36.1093 129.61 36.2279C129.523 36.3465 129.479 36.481 129.479 36.6315C129.475 36.7569 129.501 36.8664 129.558 36.9599C129.618 37.0533 129.699 37.1343 129.801 37.2027C129.904 37.2688 130.023 37.327 130.158 37.3772C130.292 37.425 130.436 37.4661 130.589 37.5003L131.22 37.6508C131.526 37.7192 131.807 37.8104 132.062 37.9244C132.318 38.0384 132.54 38.1787 132.727 38.3451C132.914 38.5116 133.059 38.7077 133.162 38.9335C133.267 39.1592 133.321 39.418 133.323 39.7099C133.321 40.1386 133.211 40.5103 132.994 40.825C132.78 41.1374 132.469 41.3802 132.062 41.5535C131.658 41.7245 131.171 41.81 130.6 41.81C130.033 41.81 129.54 41.7234 129.12 41.5501C128.702 41.3768 128.375 41.1203 128.14 40.7805C127.907 40.4384 127.785 40.0155 127.773 39.5115H129.209C129.225 39.7464 129.292 39.9425 129.411 40.0998C129.532 40.2549 129.693 40.3723 129.894 40.4521C130.097 40.5297 130.327 40.5684 130.582 40.5684C130.834 40.5684 131.052 40.5319 131.237 40.459C131.424 40.386 131.569 40.2845 131.672 40.1545C131.775 40.0246 131.826 39.8752 131.826 39.7065C131.826 39.5491 131.779 39.4169 131.686 39.3097C131.594 39.2025 131.46 39.1113 131.281 39.0361C131.105 38.9608 130.89 38.8924 130.634 38.8308L129.87 38.6393C129.278 38.4956 128.811 38.271 128.469 37.9655C128.126 37.6599 127.956 37.2483 127.958 36.7307C127.956 36.3066 128.069 35.936 128.297 35.619C128.528 35.3021 128.844 35.0547 129.246 34.8768C129.648 34.6989 130.105 34.61 130.617 34.61C131.137 34.61 131.592 34.6989 131.98 34.8768C132.371 35.0547 132.675 35.3021 132.891 35.619C133.108 35.936 133.22 36.3031 133.227 36.7204H131.806Z" fill="#07547D"/>
<path d="M141.154 38.2083C141.154 38.9722 141.009 39.6221 140.719 40.158C140.431 40.6938 140.039 41.1031 139.541 41.3859C139.045 41.6664 138.488 41.8066 137.869 41.8066C137.245 41.8066 136.686 41.6652 136.19 41.3825C135.695 41.0997 135.303 40.6904 135.015 40.1545C134.727 39.6187 134.583 38.9699 134.583 38.2083C134.583 37.4444 134.727 36.7945 135.015 36.2587C135.303 35.7228 135.695 35.3146 136.19 35.0341C136.686 34.7514 137.245 34.61 137.869 34.61C138.488 34.61 139.045 34.7514 139.541 35.0341C140.039 35.3146 140.431 35.7228 140.719 36.2587C141.009 36.7945 141.154 37.4444 141.154 38.2083ZM139.65 38.2083C139.65 37.7135 139.576 37.2962 139.428 36.9564C139.281 36.6167 139.075 36.359 138.808 36.1834C138.54 36.0078 138.227 35.92 137.869 35.92C137.51 35.92 137.197 36.0078 136.93 36.1834C136.663 36.359 136.455 36.6167 136.307 36.9564C136.161 37.2962 136.087 37.7135 136.087 38.2083C136.087 38.7031 136.161 39.1204 136.307 39.4602C136.455 39.8 136.663 40.0576 136.93 40.2332C137.197 40.4088 137.51 40.4966 137.869 40.4966C138.227 40.4966 138.54 40.4088 138.808 40.2332C139.075 40.0576 139.281 39.8 139.428 39.4602C139.576 39.1204 139.65 38.7031 139.65 38.2083Z" fill="#07547D"/>
<path d="M147.755 34.61C148.116 34.61 148.463 34.6704 148.797 34.7913C149.132 34.9122 149.431 35.1048 149.694 35.3694C149.959 35.6339 150.168 35.985 150.321 36.4229C150.476 36.8584 150.555 37.3931 150.557 38.027C150.557 38.6222 150.49 39.1535 150.355 39.621C150.223 40.0861 150.032 40.4818 149.783 40.8079C149.534 41.1339 149.234 41.3825 148.882 41.5535C148.53 41.7223 148.138 41.8066 147.704 41.8066C147.236 41.8066 146.822 41.7165 146.464 41.5364C146.105 41.354 145.816 41.1066 145.597 40.7942C145.38 40.4795 145.249 40.126 145.203 39.7338H146.666C146.723 39.9892 146.843 40.1876 147.025 40.329C147.208 40.4681 147.434 40.5376 147.704 40.5376C148.16 40.5376 148.508 40.3393 148.745 39.9425C148.983 39.5434 149.103 38.9973 149.105 38.3041H149.057C148.952 38.5093 148.81 38.686 148.632 38.8343C148.454 38.9802 148.25 39.0931 148.019 39.1729C147.79 39.2527 147.547 39.2926 147.289 39.2926C146.876 39.2926 146.507 39.1957 146.183 39.0019C145.858 38.808 145.603 38.5412 145.415 38.2015C145.228 37.8617 145.134 37.4741 145.134 37.0385C145.132 36.5688 145.241 36.1504 145.46 35.7832C145.679 35.4161 145.985 35.1288 146.378 34.9213C146.773 34.7115 147.232 34.6077 147.755 34.61ZM147.765 35.773C147.535 35.773 147.329 35.8277 147.149 35.9371C146.971 36.0466 146.829 36.1937 146.724 36.3784C146.621 36.5631 146.571 36.7695 146.573 36.9975C146.573 37.2278 146.623 37.4353 146.724 37.62C146.827 37.8024 146.966 37.9484 147.142 38.0578C147.32 38.165 147.523 38.2186 147.752 38.2186C147.923 38.2186 148.082 38.1867 148.228 38.1228C148.374 38.059 148.501 37.9712 148.608 37.8594C148.718 37.7454 148.803 37.6143 148.865 37.4661C148.927 37.3179 148.958 37.1605 148.958 36.9941C148.955 36.7729 148.903 36.5699 148.8 36.3852C148.697 36.2005 148.556 36.0523 148.375 35.9406C148.195 35.8288 147.991 35.773 147.765 35.773Z" fill="#07547D"/>
<path d="M154.722 41.8648C154.133 41.8625 153.626 41.7177 153.201 41.4304C152.778 41.1431 152.453 40.7269 152.225 40.1819C151.998 39.6369 151.887 38.9813 151.889 38.2152C151.889 37.4513 152.002 36.8002 152.228 36.2621C152.456 35.7239 152.782 35.3146 153.204 35.0341C153.629 34.7514 154.135 34.61 154.722 34.61C155.309 34.61 155.814 34.7514 156.236 35.0341C156.661 35.3169 156.988 35.7274 157.216 36.2655C157.444 36.8014 157.557 37.4513 157.555 38.2152C157.555 38.9836 157.441 39.6403 157.213 40.1853C156.986 40.7303 156.662 41.1465 156.24 41.4338C155.817 41.7211 155.311 41.8648 154.722 41.8648ZM154.722 40.6368C155.124 40.6368 155.445 40.435 155.685 40.0314C155.924 39.6278 156.043 39.0224 156.041 38.2152C156.041 37.6839 155.986 37.2415 155.877 36.888C155.769 36.5346 155.616 36.2689 155.417 36.0911C155.221 35.9132 154.989 35.8243 154.722 35.8243C154.322 35.8243 154.003 36.0238 153.763 36.4229C153.523 36.8219 153.402 37.4193 153.4 38.2152C153.4 38.7533 153.453 39.2025 153.561 39.5628C153.67 39.9208 153.824 40.1899 154.023 40.37C154.222 40.5479 154.455 40.6368 154.722 40.6368Z" fill="#07547D"/>
<path d="M161.75 41.8648C161.16 41.8625 160.653 41.7177 160.229 41.4304C159.806 41.1431 159.481 40.7269 159.252 40.1819C159.026 39.6369 158.914 38.9813 158.917 38.2152C158.917 37.4513 159.03 36.8002 159.256 36.2621C159.484 35.7239 159.81 35.3146 160.232 35.0341C160.657 34.7514 161.163 34.61 161.75 34.61C162.337 34.61 162.841 34.7514 163.264 35.0341C163.689 35.3169 164.015 35.7274 164.244 36.2655C164.472 36.8014 164.585 37.4513 164.583 38.2152C164.583 38.9836 164.469 39.6403 164.24 40.1853C164.014 40.7303 163.69 41.1465 163.267 41.4338C162.845 41.7211 162.339 41.8648 161.75 41.8648ZM161.75 40.6368C162.152 40.6368 162.473 40.435 162.712 40.0314C162.952 39.6278 163.071 39.0224 163.069 38.2152C163.069 37.6839 163.014 37.2415 162.904 36.888C162.797 36.5346 162.644 36.2689 162.445 36.0911C162.249 35.9132 162.017 35.8243 161.75 35.8243C161.35 35.8243 161.03 36.0238 160.791 36.4229C160.551 36.8219 160.43 37.4193 160.427 38.2152C160.427 38.7533 160.481 39.2025 160.588 39.5628C160.698 39.9208 160.852 40.1899 161.051 40.37C161.25 40.5479 161.483 40.6368 161.75 40.6368Z" fill="#07547D"/>
<path d="M169.079 34.7058V41.7108H167.596V36.1116H167.554L165.948 37.1172V35.8037L167.685 34.7058H169.079Z" fill="#07547D"/>
<path d="M171.999 40.8968C171.773 40.8968 171.579 40.817 171.417 40.6574C171.257 40.4977 171.177 40.3039 171.177 40.0759C171.177 39.8524 171.257 39.6609 171.417 39.5012C171.579 39.3416 171.773 39.2618 171.999 39.2618C172.218 39.2618 172.41 39.3416 172.575 39.5012C172.739 39.6609 172.821 39.8524 172.821 40.0759C172.821 40.2264 172.782 40.3643 172.705 40.4898C172.629 40.6129 172.53 40.7121 172.407 40.7873C172.283 40.8603 172.148 40.8968 171.999 40.8968ZM171.999 37.4592C171.773 37.4592 171.579 37.3794 171.417 37.2198C171.257 37.0602 171.177 36.8664 171.177 36.6383C171.177 36.4149 171.257 36.2245 171.417 36.0671C171.579 35.9075 171.773 35.8277 171.999 35.8277C172.218 35.8277 172.41 35.9075 172.575 36.0671C172.739 36.2245 172.821 36.4149 172.821 36.6383C172.821 36.7911 172.782 36.9302 172.705 37.0556C172.629 37.1788 172.53 37.2768 172.407 37.3498C172.283 37.4228 172.148 37.4592 171.999 37.4592Z" fill="#07547D"/>
<path d="M174.392 41.7108V40.6437L176.889 38.3349C177.102 38.1297 177.28 37.9449 177.424 37.7808C177.57 37.6166 177.68 37.4558 177.756 37.2985C177.831 37.1389 177.869 36.9667 177.869 36.782C177.869 36.5768 177.822 36.4 177.728 36.2518C177.635 36.1013 177.507 35.9862 177.345 35.9064C177.183 35.8243 176.999 35.7832 176.793 35.7832C176.579 35.7832 176.391 35.8265 176.231 35.9132C176.071 35.9999 175.948 36.1241 175.861 36.286C175.775 36.4479 175.731 36.6406 175.731 36.8641H174.323C174.323 36.4057 174.427 36.0078 174.635 35.6704C174.843 35.3329 175.134 35.0718 175.509 34.8871C175.883 34.7024 176.315 34.61 176.803 34.61C177.306 34.61 177.743 34.6989 178.116 34.8768C178.49 35.0524 178.781 35.2964 178.989 35.6088C179.197 35.9212 179.301 36.2792 179.301 36.6828C179.301 36.9473 179.248 37.2084 179.143 37.4661C179.041 37.7238 178.857 38.0099 178.592 38.3246C178.327 38.637 177.953 39.0121 177.472 39.4499L176.447 40.4521V40.5H179.393V41.7108H174.392Z" fill="#07547D"/>
<path d="M183.605 41.8648C183.016 41.8625 182.509 41.7177 182.084 41.4304C181.661 41.1431 181.336 40.7269 181.108 40.1819C180.882 39.6369 180.77 38.9813 180.772 38.2152C180.772 37.4513 180.885 36.8002 181.111 36.2621C181.339 35.7239 181.665 35.3146 182.087 35.0341C182.512 34.7514 183.018 34.61 183.605 34.61C184.192 34.61 184.697 34.7514 185.119 35.0341C185.544 35.3169 185.871 35.7274 186.099 36.2655C186.327 36.8014 186.441 37.4513 186.438 38.2152C186.438 38.9836 186.324 39.6403 186.096 40.1853C185.87 40.7303 185.545 41.1465 185.123 41.4338C184.7 41.7211 184.194 41.8648 183.605 41.8648ZM183.605 40.6368C184.007 40.6368 184.328 40.435 184.568 40.0314C184.808 39.6278 184.926 39.0224 184.924 38.2152C184.924 37.6839 184.869 37.2415 184.76 36.888C184.652 36.5346 184.499 36.2689 184.301 36.0911C184.104 35.9132 183.872 35.8243 183.605 35.8243C183.205 35.8243 182.886 36.0238 182.646 36.4229C182.406 36.8219 182.285 37.4193 182.283 38.2152C182.283 38.7533 182.336 39.2025 182.444 39.5628C182.553 39.9208 182.708 40.1899 182.906 40.37C183.105 40.5479 183.338 40.6368 183.605 40.6368Z" fill="#07547D"/>
<path d="M190.934 34.7058V41.7108H189.451V36.1116H189.41L187.803 37.1172V35.8037L189.54 34.7058H190.934Z" fill="#07547D"/>
<path d="M195.55 41.8066C195.066 41.8066 194.634 41.7177 194.255 41.5398C193.878 41.362 193.579 41.1168 193.358 40.8044C193.136 40.492 193.021 40.134 193.012 39.7304H194.451C194.467 40.0018 194.581 40.2218 194.793 40.3906C195.006 40.5593 195.258 40.6437 195.55 40.6437C195.783 40.6437 195.989 40.5924 196.167 40.4898C196.347 40.3849 196.488 40.2401 196.588 40.0554C196.691 39.8684 196.742 39.654 196.742 39.4123C196.742 39.166 196.69 38.9494 196.585 38.7624C196.482 38.5754 196.339 38.4295 196.157 38.3246C195.974 38.2197 195.765 38.1661 195.53 38.1639C195.324 38.1639 195.124 38.206 194.93 38.2904C194.738 38.3748 194.589 38.4899 194.481 38.6359L193.162 38.3999L193.495 34.7058H197.784V35.9166H194.718L194.536 37.6713H194.577C194.701 37.498 194.887 37.3543 195.136 37.2403C195.385 37.1263 195.663 37.0693 195.972 37.0693C196.394 37.0693 196.771 37.1685 197.102 37.3669C197.433 37.5653 197.695 37.8378 197.887 38.1844C198.079 38.5287 198.173 38.9255 198.171 39.3747C198.173 39.8467 198.064 40.2663 197.842 40.6334C197.623 40.9983 197.316 41.2856 196.921 41.4954C196.528 41.7029 196.071 41.8066 195.55 41.8066Z" fill="#07547D"/>
<path d="M126.393 46.19V53.1951H124.91V46.19H126.393Z" fill="#07547D"/>
<path d="M131.806 48.2047C131.778 47.9288 131.66 47.7144 131.453 47.5616C131.245 47.4089 130.963 47.3325 130.606 47.3325C130.364 47.3325 130.16 47.3667 129.993 47.4351C129.827 47.5012 129.699 47.5936 129.61 47.7121C129.523 47.8307 129.479 47.9653 129.479 48.1158C129.475 48.2412 129.501 48.3506 129.558 48.4441C129.618 48.5376 129.699 48.6186 129.801 48.687C129.904 48.7531 130.023 48.8112 130.158 48.8614C130.292 48.9093 130.436 48.9503 130.589 48.9846L131.22 49.135C131.526 49.2035 131.807 49.2947 132.062 49.4087C132.318 49.5227 132.54 49.6629 132.727 49.8294C132.914 49.9959 133.059 50.192 133.162 50.4177C133.267 50.6435 133.321 50.9023 133.323 51.1942C133.321 51.6229 133.211 51.9945 132.994 52.3092C132.78 52.6216 132.469 52.8645 132.062 53.0378C131.658 53.2088 131.171 53.2943 130.6 53.2943C130.033 53.2943 129.54 53.2077 129.12 53.0344C128.702 52.861 128.375 52.6045 128.14 52.2648C127.907 51.9227 127.785 51.4997 127.773 50.9958H129.209C129.225 51.2306 129.292 51.4267 129.411 51.5841C129.532 51.7391 129.693 51.8566 129.894 51.9364C130.097 52.0139 130.327 52.0527 130.582 52.0527C130.834 52.0527 131.052 52.0162 131.237 51.9432C131.424 51.8703 131.569 51.7688 131.672 51.6388C131.775 51.5088 131.826 51.3595 131.826 51.1907C131.826 51.0334 131.779 50.9011 131.686 50.794C131.594 50.6868 131.46 50.5956 131.281 50.5203C131.105 50.4451 130.89 50.3767 130.634 50.3151L129.87 50.1236C129.278 49.9799 128.811 49.7553 128.469 49.4497C128.126 49.1442 127.956 48.7326 127.958 48.2149C127.956 47.7908 128.069 47.4203 128.297 47.1033C128.528 46.7863 128.844 46.5389 129.246 46.3611C129.648 46.1832 130.105 46.0943 130.617 46.0943C131.137 46.0943 131.592 46.1832 131.98 46.3611C132.371 46.5389 132.675 46.7863 132.891 47.1033C133.108 47.4203 133.22 47.7874 133.227 48.2047H131.806Z" fill="#07547D"/>
<path d="M141.154 49.6926C141.154 50.4565 141.009 51.1064 140.719 51.6422C140.431 52.1781 140.039 52.5874 139.541 52.8702C139.045 53.1506 138.488 53.2909 137.869 53.2909C137.245 53.2909 136.686 53.1495 136.19 52.8667C135.695 52.584 135.303 52.1747 135.015 51.6388C134.727 51.1029 134.583 50.4542 134.583 49.6926C134.583 48.9287 134.727 48.2788 135.015 47.7429C135.303 47.2071 135.695 46.7989 136.19 46.5184C136.686 46.2357 137.245 46.0943 137.869 46.0943C138.488 46.0943 139.045 46.2357 139.541 46.5184C140.039 46.7989 140.431 47.2071 140.719 47.7429C141.009 48.2788 141.154 48.9287 141.154 49.6926ZM139.65 49.6926C139.65 49.1978 139.576 48.7805 139.428 48.4407C139.281 48.1009 139.075 47.8433 138.808 47.6677C138.54 47.4921 138.227 47.4043 137.869 47.4043C137.51 47.4043 137.197 47.4921 136.93 47.6677C136.663 47.8433 136.455 48.1009 136.307 48.4407C136.161 48.7805 136.087 49.1978 136.087 49.6926C136.087 50.1874 136.161 50.6047 136.307 50.9445C136.455 51.2842 136.663 51.5419 136.93 51.7175C137.197 51.8931 137.51 51.9809 137.869 51.9809C138.227 51.9809 138.54 51.8931 138.808 51.7175C139.075 51.5419 139.281 51.2842 139.428 50.9445C139.576 50.6047 139.65 50.1874 139.65 49.6926Z" fill="#07547D"/>
<path d="M145.217 53.1951V52.1279L147.714 49.8191C147.926 49.6139 148.105 49.4292 148.248 49.265C148.395 49.1008 148.505 48.9401 148.581 48.7827C148.656 48.6231 148.694 48.451 148.694 48.2663C148.694 48.061 148.647 47.8843 148.553 47.7361C148.46 47.5856 148.332 47.4704 148.17 47.3906C148.007 47.3085 147.824 47.2675 147.618 47.2675C147.403 47.2675 147.216 47.3108 147.056 47.3975C146.896 47.4841 146.773 47.6084 146.686 47.7703C146.599 47.9322 146.556 48.1249 146.556 48.3483H145.148C145.148 47.89 145.252 47.4921 145.46 47.1546C145.668 46.8171 145.959 46.556 146.333 46.3713C146.708 46.1866 147.14 46.0943 147.628 46.0943C148.131 46.0943 148.568 46.1832 148.94 46.3611C149.315 46.5367 149.606 46.7806 149.814 47.093C150.022 47.4054 150.126 47.7635 150.126 48.1671C150.126 48.4316 150.073 48.6927 149.968 48.9503C149.865 49.208 149.682 49.4942 149.417 49.8089C149.152 50.1213 148.778 50.4964 148.296 50.9342L147.272 51.9364V51.9843H150.218V53.1951H145.217Z" fill="#07547D"/>
<path d="M154.43 53.349C153.841 53.3468 153.334 53.202 152.909 52.9146C152.486 52.6273 152.161 52.2112 151.933 51.6662C151.706 51.1212 151.595 50.4656 151.597 49.6994C151.597 48.9355 151.71 48.2845 151.936 47.7463C152.164 47.2082 152.49 46.7989 152.912 46.5184C153.337 46.2357 153.843 46.0943 154.43 46.0943C155.017 46.0943 155.522 46.2357 155.944 46.5184C156.369 46.8012 156.696 47.2116 156.924 47.7498C157.152 48.2856 157.265 48.9355 157.263 49.6994C157.263 50.4679 157.149 51.1246 156.921 51.6696C156.694 52.2146 156.37 52.6307 155.948 52.9181C155.525 53.2054 155.019 53.349 154.43 53.349ZM154.43 52.1211C154.832 52.1211 155.153 51.9193 155.393 51.5157C155.632 51.1121 155.751 50.5066 155.749 49.6994C155.749 49.1681 155.694 48.7257 155.584 48.3723C155.477 48.0188 155.324 47.7532 155.125 47.5753C154.929 47.3975 154.697 47.3085 154.43 47.3085C154.03 47.3085 153.711 47.5081 153.471 47.9071C153.231 48.3062 153.11 48.9036 153.108 49.6994C153.108 50.2376 153.161 50.6868 153.269 51.0471C153.378 51.4051 153.532 51.6742 153.731 51.8543C153.93 52.0322 154.163 52.1211 154.43 52.1211Z" fill="#07547D"/>
<path d="M161.458 53.349C160.868 53.3468 160.361 53.202 159.937 52.9146C159.514 52.6273 159.189 52.2112 158.96 51.6662C158.734 51.1212 158.622 50.4656 158.625 49.6994C158.625 48.9355 158.738 48.2845 158.964 47.7463C159.192 47.2082 159.518 46.7989 159.94 46.5184C160.365 46.2357 160.871 46.0943 161.458 46.0943C162.045 46.0943 162.549 46.2357 162.972 46.5184C163.397 46.8012 163.723 47.2116 163.952 47.7498C164.18 48.2856 164.293 48.9355 164.291 49.6994C164.291 50.4679 164.177 51.1246 163.948 51.6696C163.722 52.2146 163.398 52.6307 162.975 52.9181C162.553 53.2054 162.047 53.349 161.458 53.349ZM161.458 52.1211C161.86 52.1211 162.181 51.9193 162.42 51.5157C162.66 51.1121 162.779 50.5066 162.777 49.6994C162.777 49.1681 162.722 48.7257 162.612 48.3723C162.505 48.0188 162.352 47.7532 162.153 47.5753C161.957 47.3975 161.725 47.3085 161.458 47.3085C161.058 47.3085 160.738 47.5081 160.498 47.9071C160.259 48.3062 160.138 48.9036 160.135 49.6994C160.135 50.2376 160.189 50.6868 160.296 51.0471C160.406 51.4051 160.56 51.6742 160.759 51.8543C160.958 52.0322 161.19 52.1211 161.458 52.1211Z" fill="#07547D"/>
<path d="M168.485 53.349C167.896 53.3468 167.389 53.202 166.964 52.9146C166.542 52.6273 166.216 52.2112 165.988 51.6662C165.762 51.1212 165.65 50.4656 165.652 49.6994C165.652 48.9355 165.765 48.2845 165.991 47.7463C166.22 47.2082 166.545 46.7989 166.968 46.5184C167.393 46.2357 167.898 46.0943 168.485 46.0943C169.072 46.0943 169.577 46.2357 170 46.5184C170.424 46.8012 170.751 47.2116 170.979 47.7498C171.208 48.2856 171.321 48.9355 171.319 49.6994C171.319 50.4679 171.204 51.1246 170.976 51.6696C170.75 52.2146 170.426 52.6307 170.003 52.9181C169.581 53.2054 169.075 53.349 168.485 53.349ZM168.485 52.1211C168.887 52.1211 169.208 51.9193 169.448 51.5157C169.688 51.1121 169.807 50.5066 169.804 49.6994C169.804 49.1681 169.75 48.7257 169.64 48.3723C169.533 48.0188 169.38 47.7532 169.181 47.5753C168.984 47.3975 168.753 47.3085 168.485 47.3085C168.086 47.3085 167.766 47.5081 167.526 47.9071C167.286 48.3062 167.165 48.9036 167.163 49.6994C167.163 50.2376 167.217 50.6868 167.324 51.0471C167.434 51.4051 167.588 51.6742 167.787 51.8543C167.985 52.0322 168.218 52.1211 168.485 52.1211Z" fill="#07547D"/>
<path d="M175.513 53.349C174.924 53.3468 174.417 53.202 173.992 52.9146C173.57 52.6273 173.244 52.2112 173.016 51.6662C172.79 51.1212 172.678 50.4656 172.68 49.6994C172.68 48.9355 172.793 48.2845 173.019 47.7463C173.248 47.2082 173.573 46.7989 173.996 46.5184C174.42 46.2357 174.926 46.0943 175.513 46.0943C176.1 46.0943 176.605 46.2357 177.027 46.5184C177.452 46.8012 177.779 47.2116 178.007 47.7498C178.236 48.2856 178.349 48.9355 178.346 49.6994C178.346 50.4679 178.232 51.1246 178.004 51.6696C177.778 52.2146 177.453 52.6307 177.031 52.9181C176.608 53.2054 176.102 53.349 175.513 53.349ZM175.513 52.1211C175.915 52.1211 176.236 51.9193 176.476 51.5157C176.716 51.1121 176.834 50.5066 176.832 49.6994C176.832 49.1681 176.777 48.7257 176.668 48.3723C176.56 48.0188 176.407 47.7532 176.209 47.5753C176.012 47.3975 175.78 47.3085 175.513 47.3085C175.113 47.3085 174.794 47.5081 174.554 47.9071C174.314 48.3062 174.193 48.9036 174.191 49.6994C174.191 50.2376 174.244 50.6868 174.352 51.0471C174.461 51.4051 174.616 51.6742 174.814 51.8543C175.013 52.0322 175.246 52.1211 175.513 52.1211Z" fill="#07547D"/>
<path d="M183.082 49.1145V50.2706H179.882V49.1145H183.082Z" fill="#07547D"/>
<path d="M187.75 46.19V53.1951H186.267V47.5958H186.226L184.619 48.6015V47.288L186.356 46.19H187.75Z" fill="#07547D"/>
<path d="M190.671 52.381C190.444 52.381 190.25 52.3012 190.088 52.1416C189.928 51.982 189.848 51.7882 189.848 51.5601C189.848 51.3367 189.928 51.1451 190.088 50.9855C190.25 50.8259 190.444 50.7461 190.671 50.7461C190.89 50.7461 191.082 50.8259 191.246 50.9855C191.41 51.1451 191.493 51.3367 191.493 51.5601C191.493 51.7106 191.454 51.8486 191.376 51.974C191.301 52.0971 191.202 52.1963 191.078 52.2716C190.955 52.3446 190.819 52.381 190.671 52.381ZM190.671 48.9435C190.444 48.9435 190.25 48.8637 190.088 48.7041C189.928 48.5444 189.848 48.3506 189.848 48.1226C189.848 47.8991 189.928 47.7087 190.088 47.5514C190.25 47.3918 190.444 47.312 190.671 47.312C190.89 47.312 191.082 47.3918 191.246 47.5514C191.41 47.7087 191.493 47.8991 191.493 48.1226C191.493 48.2754 191.454 48.4145 191.376 48.5399C191.301 48.663 191.202 48.7611 191.078 48.834C190.955 48.907 190.819 48.9435 190.671 48.9435Z" fill="#07547D"/>
<path d="M193.063 53.1951V52.1279L195.561 49.8191C195.773 49.6139 195.951 49.4292 196.095 49.265C196.241 49.1008 196.352 48.9401 196.427 48.7827C196.503 48.6231 196.54 48.451 196.54 48.2663C196.54 48.061 196.493 47.8843 196.4 47.7361C196.306 47.5856 196.178 47.4704 196.016 47.3906C195.854 47.3085 195.67 47.2675 195.465 47.2675C195.25 47.2675 195.063 47.3108 194.903 47.3975C194.743 47.4841 194.62 47.6084 194.533 47.7703C194.446 47.9322 194.403 48.1249 194.403 48.3483H192.995C192.995 47.89 193.098 47.4921 193.306 47.1546C193.514 46.8171 193.805 46.556 194.18 46.3713C194.554 46.1866 194.986 46.0943 195.475 46.0943C195.977 46.0943 196.415 46.1832 196.787 46.3611C197.162 46.5367 197.453 46.7806 197.661 47.093C197.868 47.4054 197.972 47.7635 197.972 48.1671C197.972 48.4316 197.92 48.6927 197.815 48.9503C197.712 49.208 197.528 49.4942 197.263 49.8089C196.998 50.1213 196.625 50.4964 196.143 50.9342L195.119 51.9364V51.9843H198.065V53.1951H193.063Z" fill="#07547D"/>
<path d="M202.277 53.349C201.687 53.3468 201.18 53.202 200.755 52.9146C200.333 52.6273 200.007 52.2112 199.779 51.6662C199.553 51.1212 199.441 50.4656 199.443 49.6994C199.443 48.9355 199.556 48.2845 199.783 47.7463C200.011 47.2082 200.336 46.7989 200.759 46.5184C201.184 46.2357 201.69 46.0943 202.277 46.0943C202.863 46.0943 203.368 46.2357 203.791 46.5184C204.216 46.8012 204.542 47.2116 204.771 47.7498C204.999 48.2856 205.112 48.9355 205.11 49.6994C205.11 50.4679 204.995 51.1246 204.767 51.6696C204.541 52.2146 204.217 52.6307 203.794 52.9181C203.372 53.2054 202.866 53.349 202.277 53.349ZM202.277 52.1211C202.678 52.1211 202.999 51.9193 203.239 51.5157C203.479 51.1121 203.598 50.5066 203.595 49.6994C203.595 49.1681 203.541 48.7257 203.431 48.3723C203.324 48.0188 203.171 47.7532 202.972 47.5753C202.776 47.3975 202.544 47.3085 202.277 47.3085C201.877 47.3085 201.557 47.5081 201.317 47.9071C201.077 48.3062 200.956 48.9036 200.954 49.6994C200.954 50.2376 201.008 50.6868 201.115 51.0471C201.225 51.4051 201.379 51.6742 201.578 51.8543C201.776 52.0322 202.009 52.1211 202.277 52.1211Z" fill="#07547D"/>
<path d="M209.606 46.19V53.1951H208.122V47.5958H208.081L206.474 48.6015V47.288L208.211 46.19H209.606Z" fill="#07547D"/>
<path d="M214.276 53.2909C213.749 53.2909 213.28 53.2054 212.868 53.0344C212.46 52.861 212.139 52.625 211.906 52.3263C211.673 52.0276 211.556 51.689 211.556 51.3105C211.556 51.0186 211.623 50.7506 211.755 50.5066C211.89 50.2604 212.073 50.0563 212.303 49.8944C212.534 49.7302 212.792 49.6253 213.077 49.5797V49.5318C212.703 49.4566 212.399 49.2753 212.166 48.988C211.933 48.6984 211.817 48.362 211.817 47.9789C211.817 47.6164 211.923 47.2937 212.135 47.011C212.348 46.7259 212.639 46.5024 213.009 46.3405C213.381 46.1764 213.804 46.0943 214.276 46.0943C214.749 46.0943 215.171 46.1764 215.541 46.3405C215.913 46.5047 216.205 46.7293 216.418 47.0144C216.63 47.2971 216.737 47.6187 216.74 47.9789C216.737 48.3643 216.619 48.7007 216.383 48.988C216.148 49.2753 215.847 49.4566 215.479 49.5318V49.5797C215.76 49.6253 216.015 49.7302 216.243 49.8944C216.474 50.0563 216.656 50.2604 216.791 50.5066C216.928 50.7506 216.998 51.0186 217 51.3105C216.998 51.689 216.88 52.0276 216.647 52.3263C216.414 52.625 216.092 52.861 215.681 53.0344C215.272 53.2054 214.804 53.2909 214.276 53.2909ZM214.276 52.2032C214.512 52.2032 214.717 52.161 214.893 52.0766C215.069 51.99 215.206 51.8714 215.304 51.7209C215.405 51.5681 215.455 51.3925 215.455 51.1942C215.455 50.9912 215.404 50.8122 215.301 50.6571C215.198 50.4998 215.059 50.3767 214.883 50.2877C214.707 50.1965 214.505 50.1509 214.276 50.1509C214.05 50.1509 213.848 50.1965 213.67 50.2877C213.492 50.3767 213.352 50.4998 213.249 50.6571C213.148 50.8122 213.098 50.9912 213.098 51.1942C213.098 51.3925 213.147 51.5681 213.245 51.7209C213.343 51.8714 213.482 51.99 213.66 52.0766C213.838 52.161 214.044 52.2032 214.276 52.2032ZM214.276 49.0735C214.473 49.0735 214.648 49.0336 214.801 48.9538C214.954 48.874 215.074 48.7634 215.16 48.622C215.247 48.4806 215.291 48.3176 215.291 48.1329C215.291 47.9504 215.247 47.7908 215.16 47.654C215.074 47.5149 214.955 47.4066 214.804 47.3291C214.653 47.2492 214.477 47.2093 214.276 47.2093C214.078 47.2093 213.902 47.2492 213.749 47.3291C213.596 47.4066 213.476 47.5149 213.389 47.654C213.305 47.7908 213.262 47.9504 213.262 48.1329C213.262 48.3176 213.306 48.4806 213.393 48.622C213.479 48.7634 213.599 48.874 213.752 48.9538C213.905 49.0336 214.08 49.0735 214.276 49.0735Z" fill="#07547D"/>
<path d="M126.393 57.6743V64.6794H124.91V57.6743H126.393Z" fill="#07547D"/>
<path d="M131.806 59.6889C131.778 59.413 131.66 59.1987 131.453 59.0459C131.245 58.8931 130.963 58.8167 130.606 58.8167C130.364 58.8167 130.16 58.8509 129.993 58.9194C129.827 58.9855 129.699 59.0778 129.61 59.1964C129.523 59.315 129.479 59.4495 129.479 59.6C129.475 59.7254 129.501 59.8349 129.558 59.9284C129.618 60.0219 129.699 60.1028 129.801 60.1712C129.904 60.2374 130.023 60.2955 130.158 60.3457C130.292 60.3936 130.436 60.4346 130.589 60.4688L131.22 60.6193C131.526 60.6877 131.807 60.7789 132.062 60.8929C132.318 61.007 132.54 61.1472 132.727 61.3137C132.914 61.4801 133.059 61.6762 133.162 61.902C133.267 62.1277 133.321 62.3865 133.323 62.6784C133.321 63.1071 133.211 63.4788 132.994 63.7935C132.78 64.1059 132.469 64.3487 132.062 64.522C131.658 64.6931 131.171 64.7786 130.6 64.7786C130.033 64.7786 129.54 64.6919 129.12 64.5186C128.702 64.3453 128.375 64.0888 128.14 63.749C127.907 63.407 127.785 62.984 127.773 62.48H129.209C129.225 62.7149 129.292 62.911 129.411 63.0683C129.532 63.2234 129.693 63.3408 129.894 63.4206C130.097 63.4982 130.327 63.5369 130.582 63.5369C130.834 63.5369 131.052 63.5005 131.237 63.4275C131.424 63.3545 131.569 63.253 131.672 63.1231C131.775 62.9931 131.826 62.8437 131.826 62.675C131.826 62.5177 131.779 62.3854 131.686 62.2782C131.594 62.1711 131.46 62.0798 131.281 62.0046C131.105 61.9293 130.89 61.8609 130.634 61.7994L129.87 61.6078C129.278 61.4642 128.811 61.2395 128.469 60.934C128.126 60.6284 127.956 60.2168 127.958 59.6992C127.956 59.2751 128.069 58.9045 128.297 58.5876C128.528 58.2706 128.844 58.0232 129.246 57.8453C129.648 57.6675 130.105 57.5785 130.617 57.5785C131.137 57.5785 131.592 57.6675 131.98 57.8453C132.371 58.0232 132.675 58.2706 132.891 58.5876C133.108 58.9045 133.22 59.2717 133.227 59.6889H131.806Z" fill="#07547D"/>
<path d="M141.154 61.1768C141.154 61.9407 141.009 62.5906 140.719 63.1265C140.431 63.6624 140.039 64.0717 139.541 64.3544C139.045 64.6349 138.488 64.7751 137.869 64.7751C137.245 64.7751 136.686 64.6338 136.19 64.351C135.695 64.0683 135.303 63.6589 135.015 63.1231C134.727 62.5872 134.583 61.9385 134.583 61.1768C134.583 60.4129 134.727 59.7631 135.015 59.2272C135.303 58.6913 135.695 58.2831 136.19 58.0027C136.686 57.7199 137.245 57.5785 137.869 57.5785C138.488 57.5785 139.045 57.7199 139.541 58.0027C140.039 58.2831 140.431 58.6913 140.719 59.2272C141.009 59.7631 141.154 60.4129 141.154 61.1768ZM139.65 61.1768C139.65 60.682 139.576 60.2647 139.428 59.925C139.281 59.5852 139.075 59.3275 138.808 59.1519C138.54 58.9764 138.227 58.8886 137.869 58.8886C137.51 58.8886 137.197 58.9764 136.93 59.1519C136.663 59.3275 136.455 59.5852 136.307 59.925C136.161 60.2647 136.087 60.682 136.087 61.1768C136.087 61.6717 136.161 62.089 136.307 62.4287C136.455 62.7685 136.663 63.0262 136.93 63.2017C137.197 63.3773 137.51 63.4651 137.869 63.4651C138.227 63.4651 138.54 63.3773 138.808 63.2017C139.075 63.0262 139.281 62.7685 139.428 62.4287C139.576 62.089 139.65 61.6717 139.65 61.1768Z" fill="#07547D"/>
<path d="M145.217 64.6794V63.6122L147.714 61.3034C147.926 61.0982 148.105 60.9135 148.248 60.7493C148.395 60.5851 148.505 60.4243 148.581 60.267C148.656 60.1074 148.694 59.9352 148.694 59.7505C148.694 59.5453 148.647 59.3686 148.553 59.2204C148.46 59.0699 148.332 58.9547 148.17 58.8749C148.007 58.7928 147.824 58.7517 147.618 58.7517C147.403 58.7517 147.216 58.7951 147.056 58.8817C146.896 58.9684 146.773 59.0927 146.686 59.2546C146.599 59.4165 146.556 59.6091 146.556 59.8326H145.148C145.148 59.3743 145.252 58.9764 145.46 58.6389C145.668 58.3014 145.959 58.0403 146.333 57.8556C146.708 57.6709 147.14 57.5785 147.628 57.5785C148.131 57.5785 148.568 57.6675 148.94 57.8453C149.315 58.0209 149.606 58.2649 149.814 58.5773C150.022 58.8897 150.126 59.2477 150.126 59.6513C150.126 59.9158 150.073 60.1769 149.968 60.4346C149.865 60.6923 149.682 60.9785 149.417 61.2931C149.152 61.6055 148.778 61.9806 148.296 62.4185L147.272 63.4206V63.4685H150.218V64.6794H145.217Z" fill="#07547D"/>
<path d="M151.957 64.6794L154.865 58.933V58.8851H151.477V57.6743H156.4V58.9022L153.488 64.6794H151.957Z" fill="#07547D"/>
<path d="M160.403 64.8333C159.813 64.831 159.306 64.6862 158.881 64.3989C158.459 64.1116 158.133 63.6954 157.905 63.1504C157.679 62.6054 157.567 61.9499 157.569 61.1837C157.569 60.4198 157.682 59.7688 157.909 59.2306C158.137 58.6925 158.462 58.2831 158.885 58.0027C159.31 57.7199 159.816 57.5785 160.403 57.5785C160.989 57.5785 161.494 57.7199 161.917 58.0027C162.342 58.2854 162.668 58.6959 162.897 59.234C163.125 59.7699 163.238 60.4198 163.236 61.1837C163.236 61.9521 163.122 62.6089 162.893 63.1539C162.667 63.6988 162.343 64.115 161.92 64.4023C161.498 64.6896 160.992 64.8333 160.403 64.8333ZM160.403 63.6054C160.804 63.6054 161.125 63.4035 161.365 62.9999C161.605 62.5963 161.724 61.9909 161.721 61.1837C161.721 60.6524 161.667 60.21 161.557 59.8566C161.45 59.5031 161.297 59.2374 161.098 59.0596C160.902 58.8817 160.67 58.7928 160.403 58.7928C160.003 58.7928 159.683 58.9923 159.443 59.3914C159.203 59.7904 159.082 60.3879 159.08 61.1837C159.08 61.7218 159.134 62.1711 159.241 62.5313C159.351 62.8893 159.505 63.1584 159.704 63.3386C159.902 63.5164 160.135 63.6054 160.403 63.6054Z" fill="#07547D"/>
<path d="M167.43 64.8333C166.841 64.831 166.334 64.6862 165.909 64.3989C165.487 64.1116 165.161 63.6954 164.933 63.1504C164.707 62.6054 164.595 61.9499 164.597 61.1837C164.597 60.4198 164.71 59.7688 164.936 59.2306C165.165 58.6925 165.49 58.2831 165.913 58.0027C166.337 57.7199 166.843 57.5785 167.43 57.5785C168.017 57.5785 168.522 57.7199 168.944 58.0027C169.369 58.2854 169.696 58.6959 169.924 59.234C170.153 59.7699 170.266 60.4198 170.263 61.1837C170.263 61.9521 170.149 62.6089 169.921 63.1539C169.695 63.6988 169.37 64.115 168.948 64.4023C168.525 64.6896 168.02 64.8333 167.43 64.8333ZM167.43 63.6054C167.832 63.6054 168.153 63.4035 168.393 62.9999C168.633 62.5963 168.751 61.9909 168.749 61.1837C168.749 60.6524 168.694 60.21 168.585 59.8566C168.477 59.5031 168.324 59.2374 168.126 59.0596C167.929 58.8817 167.697 58.7928 167.43 58.7928C167.031 58.7928 166.711 58.9923 166.471 59.3914C166.231 59.7904 166.11 60.3879 166.108 61.1837C166.108 61.7218 166.162 62.1711 166.269 62.5313C166.379 62.8893 166.533 63.1584 166.731 63.3386C166.93 63.5164 167.163 63.6054 167.43 63.6054Z" fill="#07547D"/>
<path d="M174.759 57.6743V64.6794H173.276V59.0801H173.235L171.628 60.0857V58.7723L173.365 57.6743H174.759Z" fill="#07547D"/>
<path d="M177.68 63.8653C177.454 63.8653 177.259 63.7855 177.097 63.6259C176.937 63.4663 176.857 63.2724 176.857 63.0444C176.857 62.8209 176.937 62.6294 177.097 62.4698C177.259 62.3101 177.454 62.2303 177.68 62.2303C177.899 62.2303 178.091 62.3101 178.255 62.4698C178.42 62.6294 178.502 62.8209 178.502 63.0444C178.502 63.1949 178.463 63.3329 178.385 63.4583C178.31 63.5814 178.211 63.6806 178.087 63.7559C177.964 63.8288 177.828 63.8653 177.68 63.8653ZM177.68 60.4278C177.454 60.4278 177.259 60.3479 177.097 60.1883C176.937 60.0287 176.857 59.8349 176.857 59.6069C176.857 59.3834 176.937 59.193 177.097 59.0356C177.259 58.876 177.454 58.7962 177.68 58.7962C177.899 58.7962 178.091 58.876 178.255 59.0356C178.42 59.193 178.502 59.3834 178.502 59.6069C178.502 59.7596 178.463 59.8987 178.385 60.0242C178.31 60.1473 178.211 60.2453 178.087 60.3183C177.964 60.3913 177.828 60.4278 177.68 60.4278Z" fill="#07547D"/>
<path d="M180.072 64.6794V63.6122L182.57 61.3034C182.782 61.0982 182.96 60.9135 183.104 60.7493C183.25 60.5851 183.361 60.4243 183.436 60.267C183.512 60.1074 183.549 59.9352 183.549 59.7505C183.549 59.5453 183.503 59.3686 183.409 59.2204C183.315 59.0699 183.187 58.9547 183.025 58.8749C182.863 58.7928 182.679 58.7517 182.474 58.7517C182.259 58.7517 182.072 58.7951 181.912 58.8817C181.752 58.9684 181.629 59.0927 181.542 59.2546C181.455 59.4165 181.412 59.6091 181.412 59.8326H180.004C180.004 59.3743 180.108 58.9764 180.315 58.6389C180.523 58.3014 180.814 58.0403 181.189 57.8556C181.564 57.6709 181.995 57.5785 182.484 57.5785C182.986 57.5785 183.424 57.6675 183.796 57.8453C184.171 58.0209 184.462 58.2649 184.67 58.5773C184.878 58.8897 184.981 59.2477 184.981 59.6513C184.981 59.9158 184.929 60.1769 184.824 60.4346C184.721 60.6923 184.537 60.9785 184.272 61.2931C184.007 61.6055 183.634 61.9806 183.152 62.4185L182.128 63.4206V63.4685H185.074V64.6794H180.072Z" fill="#07547D"/>
<path d="M189.286 64.8333C188.696 64.831 188.189 64.6862 187.765 64.3989C187.342 64.1116 187.017 63.6954 186.788 63.1504C186.562 62.6054 186.45 61.9499 186.452 61.1837C186.452 60.4198 186.566 59.7688 186.792 59.2306C187.02 58.6925 187.345 58.2831 187.768 58.0027C188.193 57.7199 188.699 57.5785 189.286 57.5785C189.873 57.5785 190.377 57.7199 190.8 58.0027C191.225 58.2854 191.551 58.6959 191.78 59.234C192.008 59.7699 192.121 60.4198 192.119 61.1837C192.119 61.9521 192.005 62.6089 191.776 63.1539C191.55 63.6988 191.226 64.115 190.803 64.4023C190.381 64.6896 189.875 64.8333 189.286 64.8333ZM189.286 63.6054C189.688 63.6054 190.008 63.4035 190.248 62.9999C190.488 62.5963 190.607 61.9909 190.605 61.1837C190.605 60.6524 190.55 60.21 190.44 59.8566C190.333 59.5031 190.18 59.2374 189.981 59.0596C189.785 58.8817 189.553 58.7928 189.286 58.7928C188.886 58.7928 188.566 58.9923 188.326 59.3914C188.087 59.7904 187.966 60.3879 187.963 61.1837C187.963 61.7218 188.017 62.1711 188.124 62.5313C188.234 62.8893 188.388 63.1584 188.587 63.3386C188.785 63.5164 189.018 63.6054 189.286 63.6054Z" fill="#07547D"/>
<path d="M193.562 64.6794V63.6122L196.06 61.3034C196.272 61.0982 196.45 60.9135 196.594 60.7493C196.74 60.5851 196.851 60.4243 196.927 60.267C197.002 60.1074 197.04 59.9352 197.04 59.7505C197.04 59.5453 196.993 59.3686 196.899 59.2204C196.806 59.0699 196.678 58.9547 196.515 58.8749C196.353 58.7928 196.169 58.7517 195.964 58.7517C195.749 58.7517 195.562 58.7951 195.402 58.8817C195.242 58.9684 195.119 59.0927 195.032 59.2546C194.945 59.4165 194.902 59.6091 194.902 59.8326H193.494C193.494 59.3743 193.598 58.9764 193.806 58.6389C194.013 58.3014 194.305 58.0403 194.679 57.8556C195.054 57.6709 195.485 57.5785 195.974 57.5785C196.477 57.5785 196.914 57.6675 197.286 57.8453C197.661 58.0209 197.952 58.2649 198.16 58.5773C198.368 58.8897 198.472 59.2477 198.472 59.6513C198.472 59.9158 198.419 60.1769 198.314 60.4346C198.211 60.6923 198.027 60.9785 197.762 61.2931C197.498 61.6055 197.124 61.9806 196.642 62.4185L195.618 63.4206V63.4685H198.564V64.6794H193.562Z" fill="#07547D"/>
<path d="M200.025 64.6794V63.6122L202.522 61.3034C202.735 61.0982 202.913 60.9135 203.057 60.7493C203.203 60.5851 203.314 60.4243 203.389 60.267C203.464 60.1074 203.502 59.9352 203.502 59.7505C203.502 59.5453 203.455 59.3686 203.362 59.2204C203.268 59.0699 203.14 58.9547 202.978 58.8749C202.816 58.7928 202.632 58.7517 202.426 58.7517C202.212 58.7517 202.024 58.7951 201.865 58.8817C201.705 58.9684 201.581 59.0927 201.495 59.2546C201.408 59.4165 201.364 59.6091 201.364 59.8326H199.956C199.956 59.3743 200.06 58.9764 200.268 58.6389C200.476 58.3014 200.767 58.0403 201.142 57.8556C201.516 57.6709 201.948 57.5785 202.437 57.5785C202.939 57.5785 203.376 57.6675 203.749 57.8453C204.123 58.0209 204.415 58.2649 204.622 58.5773C204.83 58.8897 204.934 59.2477 204.934 59.6513C204.934 59.9158 204.882 60.1769 204.777 60.4346C204.674 60.6923 204.49 60.9785 204.225 61.2931C203.96 61.6055 203.587 61.9806 203.105 62.4185L202.08 63.4206V63.4685H205.027V64.6794H200.025Z" fill="#07547D"/>
<path d="M124.91 69.1586H126.739L128.671 73.8651H128.753L130.686 69.1586H132.515V76.1636H131.076V71.6042H131.018L129.202 76.1294H128.222L126.407 71.5871H126.349V76.1636H124.91V69.1586Z" fill="#07547D"/>
<path d="M137.929 71.1732C137.902 70.8973 137.784 70.6829 137.576 70.5302C137.368 70.3774 137.086 70.301 136.73 70.301C136.488 70.301 136.284 70.3352 136.117 70.4036C135.95 70.4697 135.822 70.5621 135.733 70.6807C135.646 70.7992 135.603 70.9338 135.603 71.0843C135.598 71.2097 135.625 71.3192 135.682 71.4126C135.741 71.5061 135.822 71.5871 135.925 71.6555C136.028 71.7216 136.147 71.7798 136.281 71.8299C136.416 71.8778 136.56 71.9189 136.713 71.9531L137.343 72.1036C137.649 72.172 137.93 72.2632 138.186 72.3772C138.442 72.4912 138.663 72.6315 138.851 72.7979C139.038 72.9644 139.183 73.1605 139.286 73.3862C139.391 73.612 139.445 73.8708 139.447 74.1627C139.445 74.5914 139.335 74.9631 139.118 75.2777C138.903 75.5901 138.593 75.833 138.186 76.0063C137.782 76.1773 137.294 76.2628 136.723 76.2628C136.157 76.2628 135.664 76.1762 135.243 76.0029C134.825 75.8296 134.499 75.573 134.264 75.2333C134.031 74.8912 133.908 74.4682 133.897 73.9643H135.332C135.348 74.1992 135.416 74.3953 135.535 74.5526C135.656 74.7077 135.817 74.8251 136.018 74.9049C136.221 74.9824 136.45 75.0212 136.706 75.0212C136.957 75.0212 137.176 74.9847 137.361 74.9118C137.548 74.8388 137.693 74.7373 137.796 74.6073C137.898 74.4774 137.95 74.328 137.95 74.1593C137.95 74.0019 137.903 73.8697 137.809 73.7625C137.718 73.6553 137.583 73.5641 137.405 73.4889C137.229 73.4136 137.013 73.3452 136.758 73.2836L135.994 73.0921C135.402 72.9484 134.935 72.7238 134.592 72.4183C134.25 72.1127 134.08 71.7011 134.082 71.1835C134.08 70.7593 134.193 70.3888 134.421 70.0718C134.652 69.7549 134.968 69.5075 135.37 69.3296C135.772 69.1517 136.229 69.0628 136.74 69.0628C137.261 69.0628 137.716 69.1517 138.104 69.3296C138.494 69.5075 138.798 69.7549 139.015 70.0718C139.232 70.3888 139.344 70.7559 139.351 71.1732H137.929Z" fill="#07547D"/>
<path d="M140.831 69.1586H142.66L144.592 73.8651H144.674L146.606 69.1586H148.436V76.1636H146.997V71.6042H146.939L145.123 76.1294H144.143L142.328 71.5871H142.269V76.1636H140.831V69.1586Z" fill="#07547D"/>
<path d="M150.044 76.1636V69.1586H154.772V70.3797H151.527V72.0488H154.528V73.2699H151.527V74.9425H154.785V76.1636H150.044Z" fill="#07547D"/>
<path d="M158.955 76.1636V69.1586H161.724C162.253 69.1586 162.706 69.2532 163.08 69.4425C163.457 69.6294 163.744 69.8951 163.94 70.2394C164.139 70.5815 164.238 70.9839 164.238 71.4468C164.238 71.912 164.138 72.3122 163.937 72.6474C163.736 72.9803 163.444 73.2357 163.063 73.4136C162.684 73.5915 162.225 73.6804 161.686 73.6804H159.833V72.4901H161.446C161.729 72.4901 161.965 72.4513 162.152 72.3738C162.339 72.2963 162.478 72.18 162.57 72.0249C162.663 71.8698 162.71 71.6772 162.71 71.4468C162.71 71.2143 162.663 71.0182 162.57 70.8585C162.478 70.6989 162.338 70.5781 162.148 70.496C161.961 70.4116 161.725 70.3694 161.439 70.3694H160.439V76.1636H158.955ZM162.744 72.9758L164.488 76.1636H162.851L161.145 72.9758H162.744Z" fill="#07547D"/>
<path d="M167.958 76.2663C167.417 76.2663 166.951 76.1568 166.56 75.9379C166.172 75.7167 165.873 75.4043 165.663 75.0007C165.453 74.5948 165.348 74.1148 165.348 73.5607C165.348 73.0202 165.453 72.546 165.663 72.1378C165.873 71.7296 166.169 71.4115 166.55 71.1835C166.934 70.9554 167.384 70.8414 167.9 70.8414C168.247 70.8414 168.57 70.8973 168.87 71.009C169.171 71.1185 169.434 71.2838 169.657 71.505C169.884 71.7262 170.059 72.0044 170.185 72.3396C170.311 72.6725 170.373 73.0624 170.373 73.5094V73.9096H165.93V73.0066H169C169 72.7968 168.954 72.6109 168.863 72.449C168.771 72.2871 168.645 72.1606 168.482 72.0694C168.323 71.9759 168.136 71.9291 167.924 71.9291C167.702 71.9291 167.506 71.9804 167.335 72.083C167.166 72.1834 167.033 72.3191 166.937 72.4901C166.841 72.6588 166.792 72.8469 166.79 73.0545V73.913C166.79 74.1729 166.838 74.3975 166.934 74.5868C167.032 74.7761 167.17 74.922 167.348 75.0246C167.527 75.1272 167.738 75.1786 167.982 75.1786C168.144 75.1786 168.293 75.1557 168.428 75.1101C168.562 75.0645 168.678 74.9961 168.774 74.9049C168.869 74.8137 168.943 74.702 168.993 74.5697L170.343 74.6586C170.274 74.9824 170.134 75.2652 169.921 75.5069C169.711 75.7463 169.439 75.9333 169.106 76.0679C168.775 76.2001 168.392 76.2663 167.958 76.2663Z" fill="#07547D"/>
<path d="M174.082 78.2433C173.61 78.2433 173.204 78.1783 172.866 78.0483C172.53 77.9206 172.263 77.7462 172.065 77.525C171.866 77.3038 171.737 77.0552 171.677 76.7793L173.027 76.598C173.068 76.7029 173.133 76.801 173.223 76.8922C173.312 76.9834 173.429 77.0564 173.575 77.1111C173.724 77.1681 173.904 77.1966 174.117 77.1966C174.434 77.1966 174.696 77.1191 174.901 76.964C175.109 76.8112 175.213 76.5547 175.213 76.1944V75.2333H175.151C175.087 75.3792 174.991 75.5172 174.863 75.6471C174.736 75.7771 174.571 75.8832 174.37 75.9652C174.169 76.0473 173.929 76.0884 173.651 76.0884C173.256 76.0884 172.896 75.9972 172.572 75.8148C172.25 75.6301 171.993 75.3484 171.801 74.9699C171.611 74.5891 171.516 74.1079 171.516 73.5265C171.516 72.9313 171.614 72.4342 171.808 72.0352C172.002 71.6361 172.26 71.3374 172.582 71.139C172.906 70.9406 173.261 70.8414 173.647 70.8414C173.942 70.8414 174.189 70.8916 174.387 70.9919C174.586 71.09 174.746 71.2131 174.867 71.3613C174.99 71.5073 175.085 71.6509 175.151 71.7923H175.206V70.9098H176.655V76.2149C176.655 76.6619 176.546 77.0358 176.326 77.3368C176.107 77.6378 175.803 77.8636 175.415 78.0141C175.029 78.1669 174.585 78.2433 174.082 78.2433ZM174.113 74.9938C174.348 74.9938 174.547 74.9357 174.709 74.8194C174.874 74.7008 174.999 74.5321 175.086 74.3132C175.175 74.092 175.22 73.8275 175.22 73.5196C175.22 73.2118 175.176 72.945 175.09 72.7192C175.003 72.4912 174.877 72.3145 174.713 72.1891C174.548 72.0637 174.348 72.001 174.113 72.001C173.873 72.001 173.671 72.0659 173.507 72.1959C173.342 72.3236 173.218 72.5015 173.133 72.7295C173.049 72.9575 173.007 73.2209 173.007 73.5196C173.007 73.8229 173.049 74.0851 173.133 74.3063C173.22 74.5252 173.345 74.6951 173.507 74.816C173.671 74.9346 173.873 74.9938 174.113 74.9938Z" fill="#07547D"/>
<path d="M178.202 76.1636V70.9098H179.662V76.1636H178.202ZM178.936 70.2326C178.719 70.2326 178.532 70.1608 178.377 70.0171C178.224 69.8712 178.148 69.6967 178.148 69.4938C178.148 69.2931 178.224 69.1209 178.377 68.9773C178.532 68.8314 178.719 68.7584 178.936 68.7584C179.153 68.7584 179.338 68.8314 179.491 68.9773C179.646 69.1209 179.724 69.2931 179.724 69.4938C179.724 69.6967 179.646 69.8712 179.491 70.0171C179.338 70.1608 179.153 70.2326 178.936 70.2326Z" fill="#07547D"/>
<path d="M185.595 72.408L184.259 72.4901C184.236 72.3761 184.187 72.2735 184.112 72.1822C184.036 72.0887 183.937 72.0146 183.814 71.9599C183.693 71.9029 183.548 71.8744 183.379 71.8744C183.152 71.8744 182.962 71.9223 182.806 72.0181C182.651 72.1116 182.573 72.237 182.573 72.3943C182.573 72.5197 182.624 72.6258 182.724 72.7124C182.825 72.7991 182.997 72.8686 183.241 72.9211L184.194 73.1126C184.705 73.2175 185.087 73.3862 185.338 73.6188C185.589 73.8514 185.715 74.157 185.715 74.5355C185.715 74.8798 185.613 75.182 185.41 75.4419C185.209 75.7019 184.933 75.9048 184.581 76.0508C184.232 76.1944 183.828 76.2663 183.372 76.2663C182.675 76.2663 182.12 76.1214 181.707 75.8318C181.296 75.54 181.055 75.1432 180.984 74.6415L182.419 74.5663C182.463 74.7784 182.568 74.9403 182.734 75.052C182.901 75.1614 183.115 75.2162 183.375 75.2162C183.631 75.2162 183.836 75.1671 183.992 75.0691C184.149 74.9688 184.229 74.8399 184.232 74.6826C184.229 74.5503 184.173 74.442 184.064 74.3576C183.954 74.271 183.785 74.2049 183.557 74.1593L182.645 73.978C182.132 73.8754 181.749 73.6975 181.498 73.4444C181.249 73.1913 181.124 72.8686 181.124 72.4764C181.124 72.1389 181.216 71.8482 181.398 71.6042C181.583 71.3602 181.843 71.1721 182.176 71.0398C182.512 70.9076 182.905 70.8414 183.355 70.8414C184.019 70.8414 184.542 70.9817 184.924 71.2621C185.307 71.5426 185.531 71.9246 185.595 72.408Z" fill="#07547D"/>
<path d="M189.819 70.9098V72.0044H186.65V70.9098H189.819ZM187.369 69.6511H188.829V74.5492C188.829 74.6837 188.849 74.7886 188.89 74.8639C188.931 74.9368 188.989 74.9881 189.062 75.0178C189.137 75.0474 189.224 75.0623 189.322 75.0623C189.39 75.0623 189.459 75.0565 189.528 75.0452C189.596 75.0315 189.649 75.0212 189.685 75.0144L189.915 76.0986C189.842 76.1214 189.739 76.1477 189.606 76.1773C189.474 76.2092 189.313 76.2286 189.123 76.2355C188.772 76.2491 188.463 76.2024 188.198 76.0952C187.936 75.9881 187.731 75.8216 187.585 75.5958C187.439 75.3701 187.367 75.0851 187.369 74.7407V69.6511Z" fill="#07547D"/>
<path d="M193.497 76.2663C192.956 76.2663 192.49 76.1568 192.099 75.9379C191.711 75.7167 191.412 75.4043 191.202 75.0007C190.991 74.5948 190.886 74.1148 190.886 73.5607C190.886 73.0202 190.991 72.546 191.202 72.1378C191.412 71.7296 191.707 71.4115 192.089 71.1835C192.473 70.9554 192.922 70.8414 193.439 70.8414C193.786 70.8414 194.109 70.8973 194.408 71.009C194.71 71.1185 194.972 71.2838 195.196 71.505C195.422 71.7262 195.598 72.0044 195.724 72.3396C195.849 72.6725 195.912 73.0624 195.912 73.5094V73.9096H191.469V73.0066H194.538C194.538 72.7968 194.493 72.6109 194.401 72.449C194.31 72.2871 194.183 72.1606 194.021 72.0694C193.861 71.9759 193.675 71.9291 193.463 71.9291C193.241 71.9291 193.045 71.9804 192.873 72.083C192.704 72.1834 192.572 72.3191 192.476 72.4901C192.38 72.6588 192.331 72.8469 192.329 73.0545V73.913C192.329 74.1729 192.377 74.3975 192.473 74.5868C192.571 74.7761 192.709 74.922 192.887 75.0246C193.065 75.1272 193.276 75.1786 193.521 75.1786C193.683 75.1786 193.831 75.1557 193.966 75.1101C194.101 75.0645 194.216 74.9961 194.312 74.9049C194.408 74.8137 194.481 74.702 194.531 74.5697L195.881 74.6586C195.813 74.9824 195.672 75.2652 195.46 75.5069C195.25 75.7463 194.978 75.9333 194.644 76.0679C194.313 76.2001 193.931 76.2663 193.497 76.2663Z" fill="#07547D"/>
<path d="M197.25 76.1636V70.9098H198.665V71.8265H198.72C198.816 71.5004 198.977 71.2542 199.203 71.0877C199.429 70.919 199.69 70.8346 199.984 70.8346C200.057 70.8346 200.136 70.8391 200.221 70.8483C200.305 70.8574 200.379 70.8699 200.443 70.8859V72.1788C200.375 72.1583 200.28 72.1401 200.159 72.1241C200.038 72.1081 199.927 72.1002 199.827 72.1002C199.612 72.1002 199.42 72.1469 199.251 72.2404C199.084 72.3316 198.952 72.4593 198.854 72.6235C198.758 72.7877 198.71 72.9769 198.71 73.1913V76.1636H197.25Z" fill="#07547D"/>
<path d="M203.737 76.2663C203.195 76.2663 202.73 76.1568 202.339 75.9379C201.951 75.7167 201.652 75.4043 201.441 75.0007C201.231 74.5948 201.126 74.1148 201.126 73.5607C201.126 73.0202 201.231 72.546 201.441 72.1378C201.652 71.7296 201.947 71.4115 202.329 71.1835C202.712 70.9554 203.162 70.8414 203.679 70.8414C204.026 70.8414 204.349 70.8973 204.648 71.009C204.95 71.1185 205.212 71.2838 205.436 71.505C205.662 71.7262 205.838 72.0044 205.964 72.3396C206.089 72.6725 206.152 73.0624 206.152 73.5094V73.9096H201.709V73.0066H204.778C204.778 72.7968 204.733 72.6109 204.641 72.449C204.55 72.2871 204.423 72.1606 204.261 72.0694C204.101 71.9759 203.915 71.9291 203.703 71.9291C203.481 71.9291 203.285 71.9804 203.113 72.083C202.944 72.1834 202.812 72.3191 202.716 72.4901C202.62 72.6588 202.571 72.8469 202.569 73.0545V73.913C202.569 74.1729 202.617 74.3975 202.712 74.5868C202.811 74.7761 202.949 74.922 203.127 75.0246C203.305 75.1272 203.516 75.1786 203.761 75.1786C203.923 75.1786 204.071 75.1557 204.206 75.1101C204.341 75.0645 204.456 74.9961 204.552 74.9049C204.648 74.8137 204.721 74.702 204.771 74.5697L206.121 74.6586C206.053 74.9824 205.912 75.2652 205.7 75.5069C205.49 75.7463 205.218 75.9333 204.884 76.0679C204.553 76.2001 204.171 76.2663 203.737 76.2663Z" fill="#07547D"/>
<path d="M209.429 76.2491C209.03 76.2491 208.668 76.1465 208.343 75.9413C208.021 75.7338 207.765 75.4294 207.576 75.028C207.389 74.6244 207.295 74.1296 207.295 73.5436C207.295 72.9416 207.392 72.4411 207.586 72.042C207.78 71.6407 208.038 71.3408 208.36 71.1424C208.685 70.9418 209.04 70.8414 209.426 70.8414C209.72 70.8414 209.966 70.8916 210.162 70.9919C210.361 71.09 210.521 71.2131 210.642 71.3613C210.765 71.5073 210.859 71.6509 210.923 71.7923H210.967V69.1586H212.423V76.1636H210.985V75.3222H210.923C210.854 75.4681 210.757 75.6129 210.632 75.7566C210.508 75.898 210.347 76.0154 210.149 76.1089C209.952 76.2024 209.712 76.2491 209.429 76.2491ZM209.892 75.0896C210.127 75.0896 210.326 75.0258 210.488 74.8981C210.652 74.7681 210.778 74.5868 210.865 74.3542C210.954 74.1216 210.998 73.8491 210.998 73.5367C210.998 73.2243 210.955 72.953 210.868 72.7227C210.781 72.4924 210.656 72.3145 210.491 72.1891C210.327 72.0637 210.127 72.001 209.892 72.001C209.652 72.001 209.45 72.0659 209.285 72.1959C209.121 72.3259 208.996 72.506 208.912 72.7364C208.827 72.9667 208.785 73.2335 208.785 73.5367C208.785 73.8423 208.827 74.1125 208.912 74.3474C208.999 74.58 209.123 74.7624 209.285 74.8946C209.45 75.0246 209.652 75.0896 209.892 75.0896Z" fill="#07547D"/>
<path d="M93.49 8.71771C91.055 5.93926 87.534 3.71648 86.337 2.97557C82.4412 1.12326 75.6872 -0.847339 66.1153 0.382341C61.0238 1.30851 56.0146 2.41967 50.078 5.01311C44.1413 7.60655 42.1006 8.71771 36.9058 11.8666C31.5866 15.4329 25.3839 19.9637 19.8378 24.6477C15.5649 28.2564 11.6818 31.8189 8.89224 35.9467L22.9918 25.9443C26.0655 24.1907 30.5941 21.4066 32.0823 20.5727C34.3668 19.2926 34.6927 19.1128 38.2046 17.2385C41.7165 15.3642 55.8473 9.75079 63.8889 8.71771C67.7426 8.22264 70.5677 8.16201 74.0926 8.53256C77.6112 9.05499 79.5891 9.07925 84.309 11.505C90.4186 14.6451 92.6449 16.6826 97.0972 22.4248C97.0972 22.4248 97.3883 18.9109 97.0972 16.6826C96.8068 14.4597 95.925 11.4962 93.49 8.71771Z" fill="url(#paint0_linear_143_138)" fill-opacity="0.8"/>
<path d="M5.13544 84.6124C7.20446 87.7802 10.455 90.5405 11.5622 91.4639C15.2463 93.9024 21.812 96.8716 31.6972 97C36.9944 96.7924 42.2349 96.3853 48.6297 94.6082C55.0245 92.831 57.2544 91.9974 62.9769 89.5503C68.8857 86.6978 75.8296 82.994 82.1297 79.0406C86.9834 75.9947 91.4353 72.9397 94.8595 69.1541L79.1178 77.2723C75.7477 78.6091 70.7534 80.782 69.1238 81.4138C66.6224 82.3838 66.266 82.5193 62.434 83.9155C58.602 85.3117 43.4615 88.9741 35.1568 88.8662C31.177 88.8145 28.3031 88.47 24.7815 87.5877C21.2883 86.5522 19.2858 86.2434 14.8486 83.1049C9.10497 79.0423 7.14081 76.6559 3.45307 70.1923C3.45307 70.1923 2.65126 73.7143 2.62527 76.016C2.59933 78.3123 3.06641 81.4445 5.13544 84.6124Z" fill="url(#paint1_linear_143_138)" fill-opacity="0.8"/>
<path d="M20.8695 54.4098C20.7313 55.0885 20.5643 56.0375 20.3685 57.2568C20.1727 58.4647 20.0402 59.4022 19.9711 60.0694C17.5064 60.426 15.3066 60.6043 13.3717 60.6043C11.5059 60.6043 9.76674 60.3742 8.1543 59.9141C6.55339 59.4425 5.07916 58.6775 3.73163 57.6192C2.39561 56.5494 1.43967 55.2955 0.863803 53.8576C0.287934 52.4197 0 50.8092 0 49.0262C0 46.9441 0.385832 45.0748 1.1575 43.4183C1.94068 41.7503 3.05786 40.3642 4.50905 39.2599C5.97176 38.144 7.57267 37.3503 9.3118 36.8787C11.0509 36.3955 12.8476 36.1539 14.7019 36.1539C16.4065 36.1539 18.5142 36.3725 21.025 36.8096L21.0595 38.2591C21.0826 38.8917 21.1171 39.5877 21.1632 40.3469L21.2841 42.314C19.9366 41.9919 18.8424 41.7733 18.0017 41.6583C17.1724 41.5433 16.4007 41.4858 15.6867 41.4858C14.1318 41.4858 12.7325 41.7963 11.4886 42.4175C10.2447 43.0387 9.26573 43.9417 8.55165 45.1266C7.83757 46.3114 7.48054 47.6228 7.48054 49.0607C7.48054 50.3721 7.77999 51.4994 8.37889 52.4427C8.97779 53.3745 9.78401 54.0992 10.7975 54.6168C11.8226 55.123 13.0837 55.376 14.581 55.376C15.3987 55.376 16.2856 55.3128 17.2415 55.1862C18.209 55.0482 19.4183 54.7894 20.8695 54.4098Z" fill="black"/>
<path d="M25.2044 60.1557L25.6363 56.6702L26.7074 44.5744L27.243 36.6026C29.3622 36.6256 31.0264 36.6371 32.2358 36.6371C33.2378 36.6371 34.7696 36.6256 36.8312 36.6026C36.9809 37.5919 37.1076 38.3453 37.2113 38.863C37.3149 39.3691 37.5683 40.3699 37.9714 41.8654C38.386 43.3493 38.7143 44.6377 38.9561 45.7305C39.2095 46.8118 39.5838 48.6696 40.0791 51.3039C40.5859 49.4978 41.0465 47.9449 41.4612 46.645C41.8758 45.3451 42.3941 43.8669 43.016 42.2105C43.638 40.554 44.0295 39.4727 44.1908 38.9665C44.3636 38.4489 44.5939 37.6609 44.8818 36.6026C46.6094 36.6256 48.3025 36.6371 49.961 36.6371C51.0897 36.6371 52.6561 36.6256 54.6601 36.6026C54.4413 40.4792 54.2973 43.8094 54.2282 46.5932C54.0785 52.0458 54.0036 55.7959 54.0036 57.8435C54.0036 58.2691 54.0151 59.0399 54.0382 60.1557C52.5179 60.1327 51.4525 60.1212 50.8421 60.1212C49.9552 60.1212 48.8668 60.1327 47.5769 60.1557C47.669 59.1204 47.7842 56.6587 47.9224 52.7705C48.0606 48.8709 48.1297 46.3804 48.1297 45.2991C48.1297 44.8275 48.1182 44.1718 48.0952 43.332L45.832 50.3548L42.5841 60.1557C41.0869 60.1327 40.0561 60.1212 39.4917 60.1212C38.7776 60.1212 37.6835 60.1327 36.2092 60.1557L34.0843 50.6654L32.8404 45.6097C32.7943 45.4141 32.7425 45.1726 32.6849 44.885C32.6273 44.5974 32.5352 44.0913 32.4085 43.3665L31.9766 48.1462L31.4065 57.947L31.3547 60.1557C29.7653 60.1327 28.7517 60.1212 28.3141 60.1212C27.7152 60.1212 26.6786 60.1327 25.2044 60.1557Z" fill="black"/>
<path d="M59.2023 60.1557L59.6342 56.6702L60.7053 44.5744L61.2409 36.6026C63.3601 36.6256 65.0243 36.6371 66.2337 36.6371C67.2357 36.6371 68.7675 36.6256 70.8291 36.6026C70.9788 37.5919 71.1055 38.3453 71.2092 38.863C71.3128 39.3691 71.5662 40.3699 71.9693 41.8654C72.3839 43.3493 72.7122 44.6377 72.9541 45.7305C73.2074 46.8118 73.5817 48.6696 74.077 51.3039C74.5838 49.4978 75.0445 47.9449 75.4591 46.645C75.8737 45.3451 76.392 43.8669 77.0139 42.2105C77.6359 40.554 78.0275 39.4727 78.1887 38.9665C78.3615 38.4489 78.5918 37.6609 78.8797 36.6026C80.6074 36.6256 82.3004 36.6371 83.9589 36.6371C85.0876 36.6371 86.654 36.6256 88.658 36.6026C88.4392 40.4792 88.2952 43.8094 88.2261 46.5932C88.0764 52.0458 88.0015 55.7959 88.0015 57.8435C88.0015 58.2691 88.013 59.0399 88.0361 60.1557C86.5158 60.1327 85.4504 60.1212 84.84 60.1212C83.9531 60.1212 82.8648 60.1327 81.5748 60.1557C81.6669 59.1204 81.7821 56.6587 81.9203 52.7705C82.0585 48.8709 82.1276 46.3804 82.1276 45.2991C82.1276 44.8275 82.1161 44.1718 82.0931 43.332L79.8299 50.3548L76.582 60.1557C75.0848 60.1327 74.054 60.1212 73.4896 60.1212C72.7755 60.1212 71.6814 60.1327 70.2072 60.1557L68.0822 50.6654L66.8383 45.6097C66.7923 45.4141 66.7404 45.1726 66.6828 44.885C66.6253 44.5974 66.5331 44.0913 66.4064 43.3665L65.9745 48.1462L65.4044 57.947L65.3526 60.1557C63.7632 60.1327 62.7497 60.1212 62.312 60.1212C61.7131 60.1212 60.6765 60.1327 59.2023 60.1557Z" fill="black"/>
<path d="M93.6667 60.1557C94.3347 50.9185 94.6514 41.5835 94.6514 36.6026C96.6669 36.6256 98.0145 36.6371 98.694 36.6371C99.005 36.6371 100.243 36.6256 102.408 36.6026C102.201 39.1908 102.034 41.641 101.907 43.9532C101.746 47.1742 101.631 50.188 101.562 52.9949C101.493 55.7902 101.458 58.1771 101.458 60.1557L97.9166 60.1212C97.2255 60.1212 95.8089 60.1327 93.6667 60.1557Z" fill="black"/>
<path d="M103.521 29.4857C103.521 32.1455 101.362 34.3017 98.6979 34.3017C96.0339 34.3017 93.8743 32.1455 93.8743 29.4857C93.8743 26.8259 96.0339 24.6697 98.6979 24.6697C101.362 24.6697 103.521 26.8259 103.521 29.4857Z" fill="url(#paint2_radial_143_138)"/>
<path d="M78.539 68.7544C78.6115 67.6402 78.6822 66.3197 78.751 64.793C78.7981 63.6823 78.8325 62.5337 78.8543 61.347L79.3597 61.3525C79.4648 61.3525 79.6261 61.3507 79.8435 61.347L79.675 64.5325L79.5554 67.7559L79.5337 68.7544C79.3199 68.7472 79.1604 68.7436 79.0554 68.7436C79.0119 68.7436 78.8398 68.7472 78.539 68.7544Z" fill="black"/>
<path d="M85.9848 67.8916C85.9414 68.0906 85.8979 68.3438 85.8544 68.6513C85.5066 68.7382 85.204 68.796 84.9467 68.825C84.6931 68.8575 84.4394 68.8738 84.1858 68.8738C83.7329 68.8738 83.3252 68.8196 82.9629 68.711C82.6041 68.6025 82.2961 68.4144 82.0389 68.1466C81.7816 67.8753 81.5968 67.566 81.4845 67.2187C81.3722 66.8714 81.316 66.5042 81.316 66.1171C81.316 65.578 81.4193 65.0788 81.6258 64.6193C81.8323 64.1562 82.1421 63.7927 82.5552 63.5286C82.9719 63.2645 83.4991 63.1324 84.1369 63.1324C84.4666 63.1324 84.7819 63.1813 85.0826 63.2789C85.3834 63.373 85.6334 63.5177 85.8327 63.7131C86.032 63.9084 86.186 64.1508 86.2947 64.4402C86.4034 64.726 86.4577 65.039 86.4577 65.3791C86.4577 65.5093 86.4468 65.6359 86.4251 65.7589H82.278C82.2635 65.9579 82.2563 66.1098 82.2563 66.2148C82.2563 66.5946 82.336 66.9455 82.4954 67.2675C82.6549 67.5859 82.8904 67.8283 83.202 67.9947C83.5136 68.1575 83.8724 68.2389 84.2782 68.2389C84.7456 68.2389 85.3145 68.1231 85.9848 67.8916ZM82.3215 65.3085H85.5609C85.5573 65.0806 85.5428 64.9033 85.5174 64.7767C85.4921 64.6501 85.445 64.5198 85.3761 64.386C85.3073 64.2485 85.2131 64.1309 85.0935 64.0332C84.9775 63.9319 84.8362 63.856 84.6695 63.8053C84.5065 63.7511 84.3289 63.7239 84.1369 63.7239C83.9303 63.7239 83.7329 63.7529 83.5444 63.8107C83.3596 63.8686 83.1948 63.9482 83.0498 64.0495C82.9085 64.1508 82.7871 64.2702 82.6857 64.4077C82.5878 64.5415 82.5135 64.6718 82.4628 64.7984C82.4157 64.925 82.3686 65.0951 82.3215 65.3085Z" fill="black"/>
<path d="M89.3053 68.7544L89.1205 68.2063C89.0589 68.0291 88.914 67.6257 88.6857 66.9962L87.3215 63.2572C87.5425 63.2608 87.7164 63.2627 87.8433 63.2627C87.981 63.2627 88.144 63.2608 88.3324 63.2572L88.4466 63.6371C88.4792 63.7456 88.5353 63.9193 88.6151 64.1581L89.8923 67.9404L91.6207 63.7945L91.8273 63.2572C92.0411 63.2608 92.2114 63.2627 92.3382 63.2627C92.465 63.2627 92.6353 63.2608 92.8491 63.2572L92.1425 64.7713L90.7239 67.9296L90.3761 68.7544C90.1514 68.7472 89.9757 68.7436 89.8489 68.7436C89.7184 68.7436 89.5372 68.7472 89.3053 68.7544Z" fill="black"/>
<path d="M98.2676 67.8916C98.2241 68.0906 98.1806 68.3438 98.1371 68.6513C97.7893 68.7382 97.4867 68.796 97.2295 68.825C96.9758 68.8575 96.7222 68.8738 96.4685 68.8738C96.0156 68.8738 95.608 68.8196 95.2456 68.711C94.8869 68.6025 94.5789 68.4144 94.3216 68.1466C94.0643 67.8753 93.8795 67.566 93.7672 67.2187C93.6549 66.8714 93.5987 66.5042 93.5987 66.1171C93.5987 65.578 93.702 65.0788 93.9085 64.6193C94.1151 64.1562 94.4249 63.7927 94.838 63.5286C95.2547 63.2645 95.7819 63.1324 96.4196 63.1324C96.7494 63.1324 97.0646 63.1813 97.3653 63.2789C97.6661 63.373 97.9161 63.5177 98.1154 63.7131C98.3147 63.9084 98.4687 64.1508 98.5774 64.4402C98.6861 64.726 98.7405 65.039 98.7405 65.3791C98.7405 65.5093 98.7296 65.6359 98.7078 65.7589H94.5608C94.5463 65.9579 94.539 66.1098 94.539 66.2148C94.539 66.5946 94.6187 66.9455 94.7782 67.2675C94.9376 67.5859 95.1731 67.8283 95.4848 67.9947C95.7964 68.1575 96.1551 68.2389 96.5609 68.2389C97.0284 68.2389 97.5972 68.1231 98.2676 67.8916ZM94.6042 65.3085H97.8436C97.84 65.0806 97.8255 64.9033 97.8002 64.7767C97.7748 64.6501 97.7277 64.5198 97.6588 64.386C97.59 64.2485 97.4958 64.1309 97.3762 64.0332C97.2603 63.9319 97.1189 63.856 96.9523 63.8053C96.7892 63.7511 96.6117 63.7239 96.4196 63.7239C96.2131 63.7239 96.0156 63.7529 95.8272 63.8107C95.6424 63.8686 95.4775 63.9482 95.3326 64.0495C95.1913 64.1508 95.0699 64.2702 94.9684 64.4077C94.8706 64.5415 94.7963 64.6718 94.7456 64.7984C94.6985 64.925 94.6514 65.0951 94.6042 65.3085Z" fill="black"/>
<path d="M100.126 68.7544C100.198 67.6402 100.269 66.3197 100.338 64.793C100.385 63.6823 100.42 62.5337 100.441 61.347L100.947 61.3525C101.052 61.3525 101.213 61.3507 101.43 61.347L101.262 64.5325L101.142 67.7559L101.121 68.7544C100.907 68.7472 100.747 68.7436 100.642 68.7436C100.599 68.7436 100.427 68.7472 100.126 68.7544Z" fill="black"/>
<path d="M92.4072 76.1636L92.4952 75.0305L92.5605 73.6142L92.6029 72.2043C92.605 72.1436 92.6061 71.9818 92.6061 71.7192C92.8474 71.7235 93.0746 71.7257 93.2877 71.7257C93.4464 71.7257 93.6551 71.7225 93.9138 71.7159C94.1747 71.7094 94.3997 71.7062 94.5889 71.7062C94.8454 71.7062 95.0824 71.7214 95.2998 71.7518C95.5194 71.7822 95.7107 71.8397 95.8738 71.9243C96.0368 72.0068 96.1781 72.111 96.2977 72.2369C96.4173 72.3628 96.5151 72.5028 96.5912 72.6569C96.6673 72.8089 96.7249 72.9793 96.7641 73.1681C96.8054 73.3548 96.826 73.5458 96.826 73.7412C96.826 74.1145 96.7608 74.4705 96.6304 74.8091C96.5021 75.1456 96.3097 75.4245 96.0531 75.6459C95.7966 75.8652 95.5118 76.0063 95.1987 76.0692C94.8878 76.1322 94.5345 76.1636 94.1388 76.1636L93.0301 76.1571C92.9605 76.1571 92.7529 76.1593 92.4072 76.1636ZM93.4083 75.4701C93.5866 75.4788 93.7627 75.4831 93.9367 75.4831C94.1345 75.4831 94.3171 75.4734 94.4845 75.4538C94.6541 75.4343 94.7998 75.4039 94.9215 75.3627C95.0433 75.3192 95.165 75.2444 95.2868 75.138C95.4107 75.0316 95.5118 74.909 95.59 74.7701C95.6683 74.629 95.7281 74.4727 95.7694 74.3012C95.8107 74.1297 95.8314 73.955 95.8314 73.777C95.8314 73.4514 95.7759 73.1844 95.6651 72.976C95.5542 72.7655 95.4074 72.6146 95.2248 72.5234C95.0444 72.4301 94.765 72.3834 94.3867 72.3834C94.141 72.3834 93.8595 72.3878 93.5421 72.3964L93.4083 75.4701Z" fill="black"/>
<path d="M97.7095 76.1636L97.8041 74.9166L97.8726 73.4742L97.915 72.162V71.7192C98.452 71.7235 99.0118 71.7257 99.5945 71.7257L100.221 71.7225L101.163 71.7192L101.124 72.4225L100.814 72.4062C100.729 72.4019 100.612 72.3986 100.462 72.3964C100.312 72.3943 100.159 72.3932 100.002 72.3932C99.6629 72.3932 99.4434 72.3943 99.3434 72.3964C99.2455 72.3964 99.0966 72.3997 98.8966 72.4062L98.8444 73.5621C99.1423 73.5686 99.4423 73.5719 99.7445 73.5719C99.9532 73.5719 100.305 73.5653 100.801 73.5523C100.784 73.7499 100.768 73.9865 100.755 74.2621C100.175 74.2556 99.8423 74.2524 99.7575 74.2524C99.501 74.2524 99.1814 74.2589 98.7987 74.2719L98.7466 75.4896L99.1053 75.4929C99.2096 75.4929 99.4488 75.4907 99.8227 75.4864L100.53 75.4734L101.003 75.4506C100.982 75.7024 100.966 75.9401 100.958 76.1636C100.392 76.1593 99.8825 76.1571 99.4281 76.1571L98.3552 76.1604L97.7095 76.1636Z" fill="black"/>
<path d="M103.286 76.1636L103.162 75.7534C103.144 75.6991 103.073 75.4918 102.947 75.1315L102.314 73.3342L101.734 71.7192C101.957 71.7235 102.143 71.7257 102.291 71.7257C102.382 71.7257 102.542 71.7235 102.771 71.7192L102.872 72.0806C102.893 72.1544 102.925 72.2543 102.966 72.3802L103.755 74.7668C103.803 74.9209 103.865 75.1239 103.941 75.3757L104.117 74.9785C104.161 74.8808 104.251 74.6898 104.388 74.4054L105.415 72.2629C105.446 72.2 105.476 72.1338 105.507 72.0643C105.537 71.9927 105.585 71.8777 105.65 71.7192C105.887 71.7235 106.068 71.7257 106.191 71.7257C106.265 71.7257 106.436 71.7235 106.703 71.7192L106.423 72.2402L104.639 75.7566L104.45 76.1636C104.167 76.1593 103.978 76.1571 103.883 76.1571C103.798 76.1571 103.599 76.1593 103.286 76.1636Z" fill="black"/>
<path d="M108.947 76.1636C108.953 76.0811 108.956 76.0149 108.956 75.965L108.976 75.4896C109.248 75.2465 109.496 75.0121 109.72 74.7863C109.946 74.5584 110.176 74.3153 110.411 74.057C110.646 73.7965 110.823 73.5871 110.942 73.4286C111.04 73.3005 111.105 73.205 111.138 73.1421C111.171 73.077 111.192 73.0227 111.203 72.9793C111.214 72.9337 111.22 72.8881 111.22 72.8425C111.22 72.7231 111.184 72.6265 111.112 72.5527C111.04 72.4768 110.941 72.4182 110.815 72.3769C110.691 72.3335 110.547 72.3118 110.382 72.3118C110.229 72.3118 110.064 72.3259 109.886 72.3541C109.708 72.3802 109.478 72.429 109.198 72.5006L109.26 72.1718C109.273 72.0936 109.292 71.9623 109.318 71.7778C109.821 71.6866 110.303 71.6411 110.766 71.6411C110.977 71.6411 111.18 71.6617 111.376 71.7029C111.572 71.742 111.746 71.8104 111.898 71.9081C112.052 72.0036 112.164 72.1153 112.234 72.2434C112.306 72.3693 112.341 72.5017 112.341 72.6406C112.341 72.7231 112.333 72.8056 112.315 72.8881C112.3 72.9684 112.277 73.0422 112.247 73.1095C112.188 73.2441 112.113 73.3798 112.022 73.5165C111.933 73.6533 111.791 73.8356 111.598 74.0635C111.407 74.2914 111.197 74.5248 110.969 74.7636C110.742 75.0023 110.49 75.253 110.212 75.5157H110.509L111.236 75.5124C111.477 75.5124 111.654 75.5103 111.768 75.5059C111.881 75.4994 112.016 75.4886 112.175 75.4734C112.171 75.5407 112.163 75.6286 112.152 75.7371C112.144 75.8435 112.133 75.9856 112.12 76.1636C111.626 76.1593 111.113 76.1571 110.58 76.1571C109.928 76.1571 109.384 76.1593 108.947 76.1636Z" fill="black"/>
<path d="M113.32 76.1636C113.328 76.0073 113.34 75.7154 113.355 75.2878L113.851 75.2943C113.895 75.2943 114.037 75.2921 114.278 75.2878C114.267 75.4462 114.259 75.6058 114.252 75.7664L114.233 76.1636L113.805 76.1571C113.788 76.1571 113.626 76.1593 113.32 76.1636Z" fill="black"/>
<path d="M117.135 71.6411C117.478 71.6411 117.772 71.7149 118.015 71.8625C118.261 72.0101 118.451 72.2456 118.586 72.569C118.721 72.8924 118.788 73.2701 118.788 73.7021C118.788 74.0429 118.747 74.3826 118.664 74.7212C118.582 75.0599 118.468 75.3377 118.322 75.5548C118.176 75.7718 117.976 75.9411 117.722 76.0627C117.47 76.1821 117.199 76.2418 116.91 76.2418C116.632 76.2418 116.383 76.1886 116.163 76.0822C115.946 75.9737 115.768 75.8228 115.631 75.6297C115.494 75.4343 115.399 75.2161 115.344 74.9752C115.29 74.7321 115.263 74.4825 115.263 74.2263C115.263 73.8725 115.304 73.5241 115.387 73.1811C115.469 72.8382 115.588 72.5527 115.742 72.3248C115.899 72.0947 116.101 71.9232 116.349 71.8104C116.597 71.6975 116.859 71.6411 117.135 71.6411ZM117.109 72.3183C117.026 72.3183 116.945 72.3346 116.864 72.3671C116.786 72.3997 116.709 72.454 116.633 72.5299C116.559 72.6037 116.497 72.6906 116.447 72.7904C116.399 72.8903 116.354 73.0118 116.313 73.1551C116.274 73.2962 116.242 73.4655 116.218 73.663C116.197 73.8584 116.186 74.0581 116.186 74.2621C116.186 74.5573 116.215 74.7983 116.274 74.985C116.335 75.1695 116.424 75.3127 116.541 75.4148C116.661 75.5168 116.798 75.5678 116.952 75.5678C117.037 75.5678 117.12 75.5515 117.2 75.5189C117.28 75.4842 117.362 75.4202 117.445 75.3268C117.529 75.2335 117.604 75.0978 117.67 74.9198C117.737 74.7397 117.786 74.5432 117.816 74.3305C117.847 74.1156 117.862 73.8985 117.862 73.6793C117.862 73.3776 117.833 73.129 117.774 72.9337C117.717 72.7383 117.632 72.5875 117.516 72.4811C117.401 72.3726 117.265 72.3183 117.109 72.3183Z" fill="black"/>
<path d="M106.462 66.6091C106.368 65.1403 106.274 63.9717 106.18 63.1035C107.796 63.6461 109.256 63.9175 110.56 63.9175C111.365 63.9175 112.013 63.7583 112.506 63.4399C113.006 63.1143 113.256 62.6802 113.256 62.1375C113.256 61.6093 113.003 61.2222 112.495 60.9762C111.995 60.7302 111.213 60.6072 110.147 60.6072C109.459 60.6072 108.828 60.647 108.256 60.7266C108.357 59.5978 108.441 58.4872 108.506 57.3946C109.028 57.4887 109.575 57.5357 110.147 57.5357C110.8 57.5357 111.34 57.4959 111.767 57.4163C112.202 57.3295 112.532 57.1667 112.756 56.9279C112.981 56.6819 113.093 56.4178 113.093 56.1356C113.093 55.8824 113.003 55.6545 112.822 55.4519C112.648 55.2493 112.383 55.1082 112.028 55.0286C111.673 54.9418 111.231 54.8984 110.702 54.8984C110.245 54.8984 109.76 54.9237 109.245 54.9743C108.731 55.025 108.031 55.1408 107.147 55.3216L107.691 52.8037C107.734 52.5794 107.778 52.3406 107.821 52.0873C109.394 51.8992 110.836 51.8052 112.148 51.8052C113.003 51.8052 113.825 51.863 114.615 51.9788C115.405 52.0946 116.079 52.308 116.637 52.6192C117.202 52.9231 117.615 53.321 117.876 53.813C118.144 54.305 118.278 54.8586 118.278 55.4736C118.278 55.8426 118.228 56.1971 118.126 56.5372C118.032 56.8773 117.884 57.1956 117.681 57.4923C117.478 57.7817 117.239 58.0386 116.963 58.2629C116.688 58.4872 116.42 58.6681 116.159 58.8056C115.898 58.943 115.55 59.0986 115.115 59.2722C115.572 59.3663 115.927 59.464 116.18 59.5653C116.441 59.6666 116.702 59.8149 116.963 60.0103C117.224 60.1984 117.445 60.4227 117.626 60.6832C117.807 60.9364 117.942 61.2222 118.028 61.5406C118.115 61.859 118.159 62.199 118.159 62.5608C118.159 63.2771 117.992 63.9392 117.659 64.547C117.333 65.1547 116.847 65.6612 116.202 66.0664C115.565 66.4644 114.829 66.7502 113.996 66.9238C113.169 67.0975 112.336 67.1843 111.495 67.1843C110.676 67.1843 109.894 67.1409 109.147 67.0541C108.408 66.9745 107.513 66.8262 106.462 66.6091Z" fill="#07547D"/>
</g>
<defs>
<linearGradient id="paint0_linear_143_138" x1="217.418" y1="8.92914" x2="185.074" y2="136.2" gradientUnits="userSpaceOnUse">
<stop stop-color="#3BB7F9" stop-opacity="0.03"/>
<stop offset="0.435" stop-color="#2F94C9"/>
<stop offset="1" stop-color="#06547D"/>
</linearGradient>
<linearGradient id="paint1_linear_143_138" x1="217.418" y1="8.92914" x2="185.074" y2="136.2" gradientUnits="userSpaceOnUse">
<stop stop-color="#3BB7F9" stop-opacity="0.03"/>
<stop offset="0.435" stop-color="#2F94C9"/>
<stop offset="1" stop-color="#06547D"/>
</linearGradient>
<radialGradient id="paint2_radial_143_138" cx="0" cy="0" r="1" gradientUnits="userSpaceOnUse" gradientTransform="translate(108.5 48.5) rotate(90) scale(48.5 108.5)">
<stop offset="0.544" stop-color="#0871BE" stop-opacity="0.44"/>
<stop offset="1" stop-color="#3BB7F9" stop-opacity="0.13"/>
</radialGradient>
</defs>
</svg>
