<svg width="58" height="58" viewBox="0 0 58 58" fill="none" xmlns="http://www.w3.org/2000/svg">
<g id="simple-icons:bmcsoftware" clip-path="url(#clip0_1_9252)">
<path id="Vector" d="M15.4062 57.9976C13.1104 57.9976 10.6937 56.1875 10.6937 52.6809V44.4643C10.6937 41.2042 12.7479 37.4583 15.6479 35.8899L27.1271 29.1233L15.6479 22.3566C12.8687 20.5417 10.6937 16.9167 10.6937 13.6542V5.31667C10.6937 1.8125 13.1104 0 15.5319 0C16.4986 0 17.5836 0.241667 18.5503 0.845833L44.4086 16.1917C46.2211 17.2792 47.1878 18.9684 47.1878 20.6601C47.1878 22.4726 46.0955 24.1643 44.4086 25.1309L38.2461 28.7559L44.4086 32.3833C46.2211 33.4708 47.3086 35.1625 47.3086 36.8542C47.3086 38.6667 46.2163 40.3583 44.4086 41.325L18.5455 57.1542C17.458 57.7583 16.4913 58 15.4038 58L15.4062 57.9976ZM32.6854 32.3833L18.5479 40.7208C17.4604 41.325 16.3729 43.2583 16.3729 44.4667V51.8375L40.9021 37.3375L32.6854 32.3833ZM16.3729 6.28333V13.6542C16.3729 14.8625 17.4604 16.7958 18.5479 17.4L32.6854 25.7375L41.0229 20.7833L16.3729 6.28333Z" fill="#F8F8F8"/>
</g>
<defs>
<clipPath id="clip0_1_9252">
<rect width="58" height="58" fill="white"/>
</clipPath>
</defs>
</svg>
