<svg width="65" height="65" viewBox="0 0 65 65" fill="none" xmlns="http://www.w3.org/2000/svg">
<g id="carbon:container-software">
<path id="Vector" d="M56.875 24.375H40.625V8.125H56.875V24.375ZM44.6875 20.3125H52.8125V12.1875H44.6875V20.3125Z" fill="#0871BE"/>
<path id="Vector_2" d="M34.5312 30.4688V18.2812H18.2812V46.7188H46.7188V30.4688H34.5312ZM22.3438 22.3438H30.4688V30.4688H22.3438V22.3438ZM30.4688 42.6562H22.3438V34.5312H30.4688V42.6562ZM42.6562 42.6562H34.5312V34.5312H42.6562V42.6562Z" fill="#0871BE"/>
<path id="Vector_3" d="M52.8125 56.875H12.1875C11.1104 56.8739 10.0777 56.4456 9.31607 55.6839C8.55443 54.9223 8.12608 53.8896 8.125 52.8125V12.1875C8.12608 11.1104 8.55443 10.0777 9.31607 9.31607C10.0777 8.55443 11.1104 8.12608 12.1875 8.125H32.5V12.1875H12.1875V52.8125H52.8125V32.5H56.875V52.8125C56.8739 53.8896 56.4456 54.9223 55.6839 55.6839C54.9223 56.4456 53.8896 56.8739 52.8125 56.875Z" fill="#0871BE"/>
</g>
</svg>
