<svg width="71" height="71" viewBox="0 0 71 71" fill="none" xmlns="http://www.w3.org/2000/svg">
<g id="arcticons:digital-praveshotsav">
<path id="Vector" d="M39.2082 35.4941C39.2496 33.3034 39.2777 29.6218 40.4699 28.8733C41.6488 28.1249 43.9771 28.8186 45.1693 28.721C46.3482 28.6233 46.3896 27.7639 46.431 26.8912M57.2585 35.9704C57.2585 35.9704 57.1964 29.4679 56.0663 28.6233C54.9155 27.7654 52.6139 28.6647 51.4365 28.6233C50.2428 28.5819 50.1748 27.6116 50.1052 26.6265M40.6637 19.88L37.8222 25.8928M54.1019 20.2512L57.0647 25.56M47.4294 9.65894C51.2693 9.65894 54.3741 13.3746 54.3741 17.9497C54.3741 22.5247 51.2679 26.2256 47.4294 26.2256C43.5747 26.2256 40.4699 22.5247 40.4699 17.9497C40.4699 13.3746 43.5762 9.65894 47.4294 9.65894ZM21.5884 37.4821C25.4283 37.4821 28.5479 41.3501 28.5479 46.1056C28.5479 50.8611 25.4283 54.7144 21.5884 54.7144C17.7485 54.7144 14.6289 50.8596 14.6289 46.1056C14.6289 41.3516 17.7485 37.4821 21.5884 37.4821Z" stroke="#0871BE" stroke-width="1.04167" stroke-linecap="round" stroke-linejoin="round"/>
<path id="Vector_2" d="M14.9204 44.1501C17.3462 44.483 19.7721 44.8306 21.2557 44.1087C22.7393 43.4017 23.294 41.6415 23.9034 41.461C24.5128 41.2806 25.1784 42.6946 25.8855 43.4431C26.6073 44.2064 27.3558 44.3025 28.119 44.4134M40.6638 16.2856C42.356 16.5356 44.06 16.7989 45.1013 16.2856C46.1545 15.7871 46.542 14.5106 47.0967 14.3035C47.6366 14.0964 48.3303 14.9396 49.5078 15.4543C50.6852 15.9691 52.3374 16.1332 53.9867 16.3122M24.7909 53.9245C25.1237 54.8815 25.4713 55.837 26.5511 56.0308C27.6457 56.2394 29.4621 55.698 30.5301 57.3621C31.598 59.0261 31.8894 62.9075 32.1793 66.7888M19.9244 54.7144C19.6478 55.6019 19.3564 56.4746 18.608 56.6964C17.8447 56.9183 16.6259 56.4746 15.9603 56.6964C15.2798 56.9331 15.1556 57.8339 15.0313 58.748M40.5396 46.008H55.1242V54.0768H40.5396V46.008Z" stroke="#0871BE" stroke-width="1.04167" stroke-linecap="round" stroke-linejoin="round"/>
<path id="Vector_3" d="M24.569 22.0529C26.2919 22.0529 27.6886 20.6562 27.6886 18.9333C27.6886 17.2105 26.2919 15.8138 24.569 15.8138C22.8461 15.8138 21.4495 17.2105 21.4495 18.9333C21.4495 20.6562 22.8461 22.0529 24.569 22.0529Z" stroke="#0871BE" stroke-width="1.04167" stroke-linecap="round" stroke-linejoin="round"/>
<path id="Vector_4" d="M23.9033 15.62L21.2556 12.9723L12.6469 21.5811V31.5211H27.2167M34.5089 3.69794L35.8254 67.3021M3.70679 34.8137L67.2932 36.1864M47.8303 46.0982L47.7061 40.504H50.3686" stroke="#0871BE" stroke-width="1.04167" stroke-linecap="round" stroke-linejoin="round"/>
<path id="Vector_5" d="M67.3022 35.5C67.3022 53.0636 53.0637 67.3021 35.5001 67.3021C17.9365 67.3021 3.698 53.0636 3.698 35.5M67.3022 35.5C67.3022 17.9364 53.0637 3.69794 35.5001 3.69794C17.9365 3.69794 3.698 17.9364 3.698 35.5" stroke="#0871BE" stroke-width="1.04167" stroke-linecap="round" stroke-linejoin="round"/>
</g>
</svg>
