<svg width="74" height="74" viewBox="0 0 74 74" fill="none" xmlns="http://www.w3.org/2000/svg">
<g id="icon-park-outline:upload-web">
<g id="Group">
<path id="Vector" d="M43.1667 61.6667H10.7917C9.56512 61.6667 8.38874 61.1794 7.52138 60.312C6.65402 59.4447 6.16675 58.2683 6.16675 57.0417V16.9583C6.16675 15.7317 6.65402 14.5553 7.52138 13.688C8.38874 12.8206 9.56512 12.3333 10.7917 12.3333H63.2084C64.435 12.3333 65.6114 12.8206 66.4788 13.688C67.3461 14.5553 67.8334 15.7317 67.8334 16.9583V35.5493M60.1251 63.2083V44.7083M60.1251 44.7083L52.4167 52.4167M60.1251 44.7083L67.8334 52.4167" stroke="#0871BE" stroke-width="4.16667" stroke-linecap="round" stroke-linejoin="round"/>
<path id="Vector_2" d="M6.16675 16.9583C6.16675 15.7317 6.65402 14.5553 7.52138 13.688C8.38874 12.8206 9.56512 12.3333 10.7917 12.3333H63.2084C64.435 12.3333 65.6114 12.8206 66.4788 13.688C67.3461 14.5553 67.8334 15.7317 67.8334 16.9583V30.8333H6.16675V16.9583Z" stroke="#0871BE" stroke-width="4.16667"/>
<path id="Vector_3" d="M12.3333 21.5834C12.3333 19.8805 13.7138 18.5 15.4167 18.5C17.1195 18.5 18.5 19.8805 18.5 21.5834C18.5 23.2862 17.1195 24.6667 15.4167 24.6667C13.7138 24.6667 12.3333 23.2862 12.3333 21.5834Z" fill="#0871BE"/>
<path id="Vector_4" d="M21.5833 21.5834C21.5833 19.8805 22.9638 18.5 24.6667 18.5C26.3695 18.5 27.75 19.8805 27.75 21.5834C27.75 23.2862 26.3695 24.6667 24.6667 24.6667C22.9638 24.6667 21.5833 23.2862 21.5833 21.5834Z" fill="#0871BE"/>
</g>
</g>
</svg>
