<svg width="57" height="57" viewBox="0 0 57 57" fill="none" xmlns="http://www.w3.org/2000/svg">
<g id="icon-park-outline:download-web">
<g id="Group">
<path id="Vector" d="M32.0625 47.5H8.3125C7.36767 47.5 6.46153 47.1247 5.79343 46.4566C5.12533 45.7885 4.75 44.8823 4.75 43.9375V13.0625C4.75 12.1177 5.12533 11.2115 5.79343 10.5434C6.46153 9.87533 7.36767 9.5 8.3125 9.5H48.6875C49.6323 9.5 50.5385 9.87533 51.2066 10.5434C51.8747 11.2115 52.25 12.1177 52.25 13.0625V28.5M40.375 42.75L46.3125 48.6875M46.3125 48.6875L52.25 42.75M46.3125 48.6875V34.4375" stroke="#F8F8F8" stroke-width="4.16667" stroke-linecap="round" stroke-linejoin="round"/>
<path id="Vector_2" d="M4.75 13.0625C4.75 12.1177 5.12533 11.2115 5.79343 10.5434C6.46153 9.87533 7.36767 9.5 8.3125 9.5H48.6875C49.6323 9.5 50.5385 9.87533 51.2066 10.5434C51.8747 11.2115 52.25 12.1177 52.25 13.0625V23.75H4.75V13.0625Z" stroke="#F8F8F8" stroke-width="4.16667"/>
<path id="Vector_3" d="M9.5 16.625C9.5 15.3133 10.5633 14.25 11.875 14.25C13.1867 14.25 14.25 15.3133 14.25 16.625C14.25 17.9367 13.1867 19 11.875 19C10.5633 19 9.5 17.9367 9.5 16.625Z" fill="#F8F8F8"/>
<path id="Vector_4" d="M16.625 16.625C16.625 15.3133 17.6883 14.25 19 14.25C20.3117 14.25 21.375 15.3133 21.375 16.625C21.375 17.9367 20.3117 19 19 19C17.6883 19 16.625 17.9367 16.625 16.625Z" fill="#F8F8F8"/>
</g>
</g>
</svg>
